<mxfile host="app.diagrams.net" modified="2024-07-14T01:14:18.785Z" agent="Mozilla/5.0 (Windows NT 10.0; Win64; x64) AppleWebKit/537.36 (KHTML, like Gecko) Chrome/126.0.0.0 Safari/537.36" etag="XKK_6XnuATkI_qfq5SUX" version="24.6.5" type="device">
  <diagram name="ページ1" id="TVMkWlRGI2_09_ipoUBv">
    <mxGraphModel dx="1425" dy="1218" grid="1" gridSize="10" guides="1" tooltips="1" connect="1" arrows="1" fold="1" page="1" pageScale="1" pageWidth="827" pageHeight="1169" math="0" shadow="0">
      <root>
        <mxCell id="0" />
        <mxCell id="1" parent="0" />
        <mxCell id="NtgWOxJLACzpBkcqZCcz-2" value="" style="shape=image;verticalLabelPosition=bottom;labelBackgroundColor=default;verticalAlign=top;aspect=fixed;imageAspect=0;image=data:image/png,iVBORw0KGgoAAAANSUhEUgAABDoAAASCCAYAAABTtIyhAAAAAXNSR0IArs4c6QAAAARnQU1BAACxjwv8YQUAAAAJcEhZcwAADsMAAA7DAcdvqGQAAK5aSURBVHhe7N0JgFVl3T/w37Dvi6AOiiZKJuKCpC+iZYqp5VIJaYlZufS22K71qlmZovKa9GZFWmlW/qXU0Mql0kQzFSkDKxFzwT1QQARRduZ/nzP34p1xZhiG2Th8Pnq4zzn33HPPudvc53uf5zkBAAAAkBcV2b9nPVyVXQIAAABsribuUbE+6HjLr47OigAAAACbm2c+fEsWdHQozgMAAABs9gQdAAAAQG4IOgAAAIDcEHQAAAAAuSHoAAAAAHJjizzrSocOHaJr167RsXCZylE8+QxAXaqqqmLt2rWxZs2aWLVqVXEpAADQnpTOutJsQUcKDnp07x6du3SJTh07RsfC1FhZBaIwrS5UIF5fvjxWrlxZvKZ59erVK9vHtK8ATZE+r5YXPqeWvfZarF69uri0BVVVRVXho7qicJlC2cK/2bKKVC4uyz7IS+ulMgAAbIGa5fSy6Yt2Cg8GDRoU22y9dVbu2qXLRoUcSVo/3S7dPm0nba93oZy23xx69uwZ2xW22b9fPyEHsEnS51X6rKrcdtsYsNVW1a3CWkAWaCSl8KL4eZj+LX02psv1n5Ll5YL1twcAgC1Mk7+hpy/7226zTRYepBYczSltr19hu9sWKhKpe8mm6NunT2zVv/9Ghy8AG9KjR4/sc7A5P19KAUV5aNEUpdsLPAAA2NI0KUXo3LlzbFP4cp8uW1LnTp2ysCNdNkXfvn2jT58+xTmA5tcpfU41U9iRQolNDThqy7aXurgAAMAWYqODjg4VFbH1wIHN3oqjPqnyMLBwfxvbjaVbt27Rp3fv4hxAy8k+pwYMKM5tghYKJMQcAABsSTY66BgwcGCrdwNJv5imvvCNlfZvY9YH2FRdunSJfn37Fuc2TimIaK5xiWorbVfgAQDAlmCjgo7u3btHtzYazDPdd5oaI43L0VIDBALUp3fv3lkwu1FSK45W6lqS4g5hBwAAedfoNCB1WWnqr5XNpTH3nwKOdJYVgLaQzsjSaCngKHy2tlRLjrpkYYcxOwAAyLFGBx1du3Xb+F8qm1m6/zT2RkPSWRA2Rddu3WPo23aLA981JsYcfmQ2veNdh8auu+1euO/GtSgBtlw9GtnyLNOKAUe51gxWAACgtVV/2z3r4aq3/OrorFifdIrW9tBSYtmyZbH4lVeKc2+2zdZbR9eN6F6TftlMX/o7dugYw0eMjGF77BVbD9wmW1b61XPV6pVRta4qXn311Zjz8D/iXw/NjHXr1q6/LUC5F196KVatWlWcq1v6dGmrTw+fXQAA5NEzH74lYuIeFY1u0dHSp5JtrDTgX0M2Zj9LX/a7du0WY95zdNZyo3ev3jH3ycdj+r1/jj/e+pv4Q2F6af6LWaUlbXv0Ow+Jw957THTt0q1GGAJQ0pjPoU2JGbbeeuvYfffds8umEHIAAJBn1d92G9GiY7tBg1r9bCt1Wbt2bfxn3rzi3JvtMHhwsdSwUsiRjmnM4UdlXVMWLHgxZv3tgXj8sUfTCtl6vXr3iaPe/8Ho3qNHrF69unpZrz7x1JOPxZ1/vCXbH7+OAuWWLFkSS199tTj3Zpv6mfHBD34wPjhuXPx66tT49a9/XVy68Xx2AQC0rFH/9V9x4oknxjbbbFNcUr/Hn3givv71rxfnNh9/+P3v43//93/jrrvvLi6pX+p9cfVPfxrjC49JSyi16Gh00DF4++3bxRfi9MX8+RdeKM69WWODjpK99tk33nnIu2PhSy/Gnbffll2mjKNz506xx94jY6edh0bffv1j3bp1xVtUhy19+vaL+++ZFv+c9WBxaeN873vfq/dX2H/9619x0UUXFefqVvv2qaXJwoUL45FHHomrrrqquLT1HHzwwXHEEUfEdtttl7W2Sfvzn//8J84+++zs+l/+8pfxu9/9LrtsKekxmT59er330dL78NnPfjZGjBgRp512WnEJ7dkee+wRRx99dHz3u9+NFStWFJdWS2MAffGLX4xbbrklHn744eLSjbd06dJYUpjqs6ndVpot6ChMYg4AgJax6667ZvW7Cy+8sFHDK6RQJNX1zt3Mwo53vetdcfkPfxinF+pFd911V3Hpm6XH4KeFOuuaQn36Yx/7WHFp89roritNCTmGDRtWLNVtQ9fXpTnDljTw6O577h2rC5Xzv8+YnoUcHTp0LNxHZAHHAe88JPr065cFG+l+S1M6s8vrry3LbruxA5R+/vOfjxNOOCGbFixYkIUbpfkNhRwlpdtcfPHF8Yc//CEbO+Td7353Nt+a3ve+98XJJ5+cldN+lPZnQ92LNkYKESZNmlSca59+8IMfCDk2I4cffnjsvffe8T//8z81BjdO5bQsXZfWaUntJVwQcgAAtJz+/fvHmjVrYtasWfHAAw9seJoxI4a+9a3FW28+/vznP8enP/OZ+MH3v5+FHnUpteRI9en//u//Li5tOY0OOjbWmDFj4hvf+EacdNJJxSU1peXp+ne+853FJa1vhx13igEDt44Xnn82G5cjPehVVdUtNyq3Sy1YIjp27JT1t08tScqtW7s2evfuEzu8Zafiktb3z3/+M2ulcN5552UtFnbaaacsAGkNe+21V4wbNy7bh9R6I+1HaX/OOOOM4lqbrk+fPhs17gpsyPcLH8D/+Mc/YrfddlsfdpRCjrQsXZfWAQAAGieFHZ85/fT44eTJbwo7SiFHcvIpp8TKlSuzcktqsaAjdfVI4cCRRx75prAjzafl6fryLiGtbdtB20WHig4x74UX1p9FpRRoPPfM0/HgjOnxj7//Neb95/no0LFD1rIjBRxJh2y8korYtnK7bL65nHrqqXHFFVdkgcHPf/7zrJVEChU2JK2fWoiUr5taXKTWEOm6NKVyWlaXdLsrr7wyzjnnnOKS6tYUaVldDjvssGzMksa0tkjdWlL3krQPaXvlYUzq+lK+j2m90jGk8p577pk13ypd19zSfaXHOD3W6T7SY5+eg3Ll+5jWS49R2pfSY5WOJ11Xkq5L4VPabuk26bGkfSi9bkthx1lnnZVNpZAjXVcajwcAAGicusKOtgg5khYLOu6+++748Y9/nJVTqPHhD384K6fLNJ+k6++7776s3BbSg55acLz66pLo1KlT1nqjY+EyhRjPPPVkzLj/npj5twfiH3//W3aWlR49e2aDknbv3j1ef+21rN13l65vNH3fVKmCfdBBB8Xf/va3rPJ89dVXZ82dGtstYv78+etPAZwq56nFRRovI1W405TGz0jL6gpOUmuMNM7F2972tuz6NO23335x5513Fteo6S1veUs8//zzxbmGvfWtb40//elP2TGlMOY973lP8ZrqFhtPPfXU+n1MSkFI6uaTuumk26Rlab65feYzn8ku02Od7uPxxx/PugGV9iFJr9n02KX9S5Xg3r17R9++fYvX1m3IkCHZY5q2k57PAw88MHtOaB9KYce///3v7DWfpvYacqSWb7/65S9rTGl8jiRd1r4urQ8AAG2hFHakMTuOOPzwbEyO1GCgNUOOpMWCjiSFHT8tpjfvf//7sy/g6TJJy9P1bamiokOsKlRq9tv/wDhu/Mfj+I+cHB868eQ49vgT4/Cj3h87DtklWy+16PjznX+MZ+Y+Gc8/+0z8dfq9MftfD0XnTs3bpSIFC6niVRpUND0+v/rVr7IWDfW1xKhPqlSnMz+kiluqcJe6mKRKXGqNUZd0v2lg0zRQY5pSSFLeUqG2VPlvjDSoY+pak/zxj3/MxvAoHU9ansa4KO3jY489tj6saWkpWEqhVTrG0msxPV5PP/107Lvvvtl8+Trlj+OGpPCm9Nil43vttdfi7W9/ezYPAABUe7rwvXljJ9q3LOxIY3YU6kG9evWK0z7xiVYNOZIWDTqSO+64I37xi19k5dLgo2k+LW9rK1csj6p1VdXjcHTtmrXw6FKYevXqHTu+ZecYc9h7Y/sddszW/fech+P2234bf7j5pvjHzL8VKr89omOnjoUnrOZZGzZFaiWQKsjlShXwja38b7XVVlkLj9pef/317Djrc/PNN8fOO++cTQ2FHBtj0aJFxdKbjye1HEljeqTuHqnbSGr50Fq23XbbLAxK4UW5NLhraVyQ+tZJyxpSOwTa0ONO60rPb3rdpZYcKVxMUxqENC1rb2PCpM/L8y+4oMb053vuya5Llx8+4YQa0/nnn59dBwCwOdhpyJCNnmjfUr0n/WD87HPPZa37999//+I1rafFg47k97///fqwI12m+fbgxfn/KfxbPS5HGnsjNakpTemsKqnlwS677patmwYqTQprZ8HIdttvn40v8uK8tI32Yccdd4xnnnmmONc0L7/8clbR21BlL62X7m9TpW45aQyP1G0mtV4ptfyAllIKOVKw8eijj8bEiROzKZXbY9iRWhil00eXT6k7FwAAtDcp5EhjcnTs2DEbsiKdjaWuAUpbWqsEHUkKN9IAje0l5EjSgKPp1/t0uthyab5zl67RqVPn6F48fWwKQ0phx5Cdh8Z2g3eMRQsXxHPPPp0taw6pe0Ma26FcaVyHefPmZZf1SZWz1MWi1FImbauysjIrl+vRo0csXbq0OPdm6XzG6dft1G1l7NixxaVvNnPmzKwFyqYOspm65Tz44IPru4/UPv6WlB6HdAy1xyxJY3Ckxy9JTazSY1YurZ/2m83T5z73ufUhx//+7//GihUrsimVS2FHWqcl1TyHU9tpL/sBAMDmrxRyJKUxORo6G0tLarWgI0kV6PZkxYrl8ci//hE9evZaf5aYlDy99tqyuPvOP8TNN10fM/82443WHIXrB26zbbx91Ojo3KVLdtvU/aW5lAYDLZ31I4UcaSDM9LiVunyUSxXuNNhlGiQzladOnbq+i0UaCyNV4lMAkq5LU1ovncc59ZWqS7rfdJtbbrklu33al/JBOcullhcpoEhdTdLZR9J6pf1J41w0VuriUQo30m1Tl5lyqStPXWFEc0iPw/Lly7P7LQVK6fFKLUzS8ScpOEq/7pce47ReCoNKQQibn9tvvz0beLQUcpSUwo50XVoHAABonLpCjpLysOOA0aOLS1tWo4OO1J2jPWiu/SidRnb2P2fG3Mf/Hb17942qdeuy1hwrCxWeZ+Y+Ec8981QseGn++nXf+rZhMebwI2Pg1tvGY3MeKdx2Vra8dP2mSoOBpjN0jC48+amFw8knnxzPPvts1hKmXDrlaro+DYp56KGHZsvSWUPKu32kYCQFH6lPVFqvNIDmD3/4w+yytlSJT2d8eeihh7KwJN0+nfGkodQtBRrpbCqp5UgaXLS0P+VjcmxIOt4UqKTjScedwp5yaXkaDyNte2MClNrS/qVtlabSqWHT45G6KH3yk5/MlqezyaTHrRQspccizaez36R9+MhHPpJ1HUhjbtQeT4XNQxocN3VVKQ85StKydF1ap0U102fGJmsv+wEAkEPp5/L/vPBC9UwjpHDgpZdeKs5tPhoKOUpKYcePfvSjVgk7qpsqnPVw1Vt+dXRWrM+222yTVQjbWmoB8GIDT/4OgwcXSxuWAorUWiOdOvbgw94TQ4buGstffy17YuY+8Vi8vDDdT0X07b9VbFs5KLbbfnB2OtnH/z0n7rnzj4X1VqzfBm0nDWSaApIUVLSGFAql0CPdnzFFqEvqFrWkgS5imyp1nUrTK6+8knUzAwCgffrllCnZMASp1fiGdOrUKS699NJ4YMaM4pLNw89//vPoXNj3xpxCNv0w/r3LLovhe+xRXNK8nvnwLRET9yjW0BsRdGzVv3+rnfazIanLwMuLFxfn3mxjgo6kFFR06NAx9hwxMobtsVf06duvOtQp/tiZrk/rLVj4Usx5+J8x+6GZsXbdWiFHO9GaQUdqGZJauaTuLJ///OeLS6GmRgUdhc+PwgdIcaZ1+ewCAGg9jT3ryOJCPbe9DfewudnooCMNdDlwwIDiXNtZuGhRNq5CfTY26KitW7fuscNOQ2KbbQdlTXCS1HIjnaHluWeeadYxOWgeLR10pNPepnFCktSiKP2Cnu6r9ilnoaSlW3QAAABvttFBR/r1b1BlZTZYZ1tJ43P8ZwNnH9nUoANgU6WQo6GzG5W0VcsKLToAAMijUtDR6MFI0xfjpa++WpxrGxv6hbT2aWIB2kJjQ4S2ChuEHAAA5NlGJQPLli3b4OAiLSV1V9nQKT0FHUB70GkjW7611rlPnGMFAIAtwUYnA2mMjDVr1hTnWkfqsrLo5ZeLc/Vry241ACUbG7qm9hUphEgt51pCabvacQAAsCXY6KBj3bp1WdiRLltDup8FCxc2qgLQpXPnYgmg7TTlVNwphGiJLiXZZ6euKgAAbEGa1Ndj9erV2aCgDZ39pDm8/vrr2f2k+2uMdGYYgLaWWnSUztq0sVIw0RytO7LbF7ch5gAAYEvS5EEt0pfo1LIjtbZobBDRWKlrzEsLFmTdVRr7ZX9TKhYAza1HE4PX1KojCyY2sRVGaRsGHgUAYEvT5KCjZMWKFTH/xRezYCIbrHTVqmxMjY2R1k+3S7dP25k3f/5GD3rap3fvYgmg7fXo0WOTxg0qjyeyuLcY+qZ/SwFwulwfBZeXEwEHAABbqOpvwmc9XPWWXx2dFTdHnTp1ikGVlcU5gPYhnSnq5cWLi3MAAEBLeubDt0RM3KNik1t0tLXULHvggAHFOYD2o2fPnlnLDgAAoPVs9kHH1gMHRmdnWwHaqQFbbWX8IAAAaEWbddAxYMAAFQig3Uutzrr5rAIAgFaxWQYd6Qwr226zTZPPagDQmtJn1tZbb23QZAAAaAWbXdDRs0ePLOTo0qVLcQnA5qFv376xzdZbZwMoAwAALWOzCDrSGBy9evXKzqyy1VZbqSQAm63U3S59lqXQQ2ALAADNr10GHd27d48+ffpkg/htN2hQVG67bfTv10/AAeRG6saSWqdtv9122RgefQufeemzDwAA2DQV2b9nPVz1ll8dnRVr69atW3Tt0iVrVZF+fezYsWPxGgAAAICWt3rNmli1alWsLkwrC1Mq1/bMh2+JmLhHRb0tOlLriW222SY7fWtqXZF+aRRyAAAAAK2tc6dO2Zid/fr1y1pG9+/fPyoqqttu1FZn0NGrZ8/shqklBwAAAEB7knKLNMxFl86di0ve8Kago2dh5ZSMpNMhAgAAALRHqSfKtttu+6bxPGukGenKNOgnAAAAwOYgncikXI2gI11ZXx8XAAAAgPYmnTgljS1asj7o6Nq1a3YlAAAAwOakd69exVJZ0CHkAAAAADZH5eOMVvdTOevhqpF3fCx6dO+ezUJ7sHbt2li9enWsWbMm1q1bl82nCQAAqFvHjh2zCl+6TGMwdu7cOSuz+aiqqtroISWacps8uvcdV0RM3KPija4rWnTQDqRg49VXX41FixbF4sWLY9myZbFixYpYtWqVkAMAADag9GNh+g6dvkun79Tpu3X6jp2W0/41JbAQctS0PuiQ8tGW0gfykiVLsmnlypVZIgkAAGy69N06fcdO37WXLl3qB8R2Jj0/zV3/aYltbk7e6MQCbSB1SSklzRJmAABoWamldKnldPouTtspBRGpNUZzt8gobW9LDTsEHbSZ9MGaEuXUrA4AAGg96Tt46s4i7Gg7Ld3dpCUClM2FoIM2kZrLvfLKK9lAowAAQOtLLapTdxZdWVpXW7Sy2NJadgg6aHXpAzWFHI1Jj1MCmUaK7t69e/Ts2TN69+69furRo0d07dq1xmmEWtuW3O8NAGBLlpfvgX6AbF3pddMWrSzSfW5JdRdBB60qvblSf8ANvcnS4LgpzNhqq62ib9++WciRwo4UbJSmFHSU1unXr192fUuqa5+31KZgAABbutrfAzfnSmTpO7puLC1rc36NbG6q351nPVz1jns/lRWhJaWmcQ0NOpr+YKQAo1u3bk0KEVISnT6kJdIAALS2VJHdnH8ISy2p04+MtIzGvT5SGFK9Tu+enWPY4C6xQ7+IwVt1jIE9C8u6VsSyVVWxvEP3eP7VDvHkM0vjX4++EkvWds5uU7iTVKmqLm+B7n3HFRET9yg+AoIOWkHpXN71SW/69MHaqVOn4pKmSR8gr732WrMNcrq5/8ECAIDG6tWrV/ajI81rY0KOXj06xXvetUO8b8yOsdW6JbH0hRdj+aq1sWbN2li3riq2ecu2sc3QHSM6rYq5z28VN7+2fzx+x2/j8el/idfXpPt4IyypS57rN6WgQ9cVWkUpfKhP6qqSup9sasiRpDdt+oBOLUPS/W4KIQcAAFuS9J19U79DN5edd945vvjFL8a3vvWt+MAHPtAsdYW20Jg6RfXVFbHbkD7xkwvfGV84bc8YMqh7VFV0iqUrI1atXhuxZmX07981Bg4eUNjo6vjPvF5xU/cPx8o9949hn7s4Pvrxo2NIv9SyvaLwX/3PYdqX9vIctxRBB63i9ddfb/DN1KdPnyzsaE4p6NiUcTuEHAAANFVzVyR33XXXYqllpf1O393bWmpVcsopp8T222+ffa8/8MAD4+CDDy5e27oGDhyYhS7psik2GHJEVeFxjxj51l7xv1/aJwZv0yP+8+KAeGjtu2NV5+2if9eITtEl1gwYEUsGvy8e73BwPPbqHvHHjkfG630ro2rx0nhl1dpYvN9H47Rj3hp7bl94HrMWHVtu2FH9iOu6QgtK42WkkZzrk7qrpP6AG5LOrrLttttmA5O+8MILsXz58uI19Utv3nTfTTlllqADAIBN0VzfJ/fee+849thj47zzzisuaXlpwP/WOrthCjOGDRtW4/5SHeG//uu/inPVXnrppfjHP/5RnKu2aNGi+Oc//9ngOICbatCgQdkPqKn+MW/evOLSxtnwayCFDRUxeGCn+N9PDo0ddxkcS1/vHX/qcFTMrqqM3vP+EbuveiRe3uHAWNh3l1jRsVth7Q6x+rUlsaZzl+jcsbDtDhVRsXZNrOzQI/Z89JrY8cmfx8Q/ro55iwvbTmFGPfff0vWd1GL/+OOPj2222Sb+9Kc/xQMPPFC8puW02RgdqbnRu9/97uxAN5cBI0v7fPvtt7f7kYhTEPDWt741tt566xgwYEAsXrw4nnnmmXj44YfXj1lx4oknZi0oLr/88my+paXmb/WFEimdTVND0ofe4YcfHiNGjKjRX/D555/P3iy33XZbg6FHCjnS47Ax0ps+EXQAANBUzVWRPPPMM2P48OExYcKEePLJJ4tLW1aq2KcfGFva2972tjjttNOKc03z9NNPx+TJk4tzza9Fg47C9Z07V8T5J20XI4ZtE1269orZFaPi8nnDY+krS6JP926x/W5Do0ufblG1amVUxLqoKNRvKjp0jE7dukesWxvrVq6M6Ngpqgr11nVPPRyHPHRJzFu4Ir5390uxem2h/lrP/bd00PGe97wnDj300KycgqhvfOMbLZ4BlIKO6r4C7/jMeTs+e0tWbEkpMPj4xz8e++23X3Tp0iUee+yx4jXt2zHHHJM1k9phhx2yBLFUCW5P0mOb+q196EMfit122y3b19S0avDgwbHHHnvEO9/5zqxrSPoQOPLII2O77baLO+64o3jrllXf6WTTmyoFLvW9udKHyec///kYP358dhy1++Sl2+6+++7Zmyd94PznP/8pXlNTKRne2JS3YuykuOn7n479ll0Xtz9aXNiKzrzqjvjW+7eNa353fzZ/7KU3xfc/vV8su+72aIPdAQCgCTa1Ipkq2SeccEJWTj/6Pfjgg1m5paUfeDelG3hj7bPPPjF06NCYPXt2VteaO3fuRk2pNUj//v2zH9JbSu/evbMW6KUzPG6sBl8DheveM7JXHD1qQLxeqK5069E/blmyZ/x7SZfounZF9K8cEFtt1SPWrVgenVPrj8L/Xbr3io6Fwqv//mfM//OfYsHfZ8SSZ5+PBUtWx8JVPaLHC/+OoZ2WxsLla+M/SxsOFloy6EjdfXbZZZesnF5Pd911V4s3HHh2x6Mj7v3ht6qPqhVadKTK5qmnnpr1LXv22Wfjxz/+caxMydNmoGvXrvHf//3fseOOO2bhzFVXXdWuWnakAOMTn/jE+hdR+oD461//Gi+//HIWKKUWEQcccEAWDKQPg9TaI71Zv/KVr2Trt6SGWlOkhLi+D8/0IZ4GHUqPedrGvffeG3/84x/jqaeeyq5Pz0kKb1IIlZpCJek1ld48dUnbSI9HY9/IWbqZgo7P7BJP/vDYOPOm4hWtKAUdR8Qf47BTL83mU9DxmV2ejB8ee2a0we7Ub+fD4nOnHRV7Dupb+PAteH1e/OvWn8flt/07ytvZ9Dn41DjrA++IwmqZJc/eFT+f+IuYVb5So7bVJw4+9az4wDsGRfWmlsSzd/08Jv5iVo37AwBoa83xi/nJJ58cBx10UFZOdZDUumNjWys3VQoQmnscvdpSy+3DDjssrrvuuiaFOGeffXbWzaYl6zZNbdHRmOe/X88Ocd74bWKHbXtFh05dYk3PIfF/rxwdz728MirWrYkO3bpHh8I2dnrL1tGzR+fo2rd/LH1yTrzw13vjteeejt4V66Jzl86xsrBv6/ptG6+87Yg4NO6LD/S4Kx59KeKSm16Kpa+3Td011dnGjRuXdUO68847W6WhQ6uedWVzDjmStK9pn9O+p2NIx9Ja/dUaI1X2U8iRQoDvfOc78f/+3//LXkQLFy7MWjmkF9Wll16ahRwpVUshR2up73lOb/qGTlv16U9/Ogs5Up+7r33ta3HFFVesDzmStN2U2n75y1/OApAkNXlLx1eX9AGdQh8a7+AzL4+brrsoji3O16n7YfE/Z4yPkQNXx6M3fC8mfm9K3Luwb+x53Blx1gmVxZUKqx345Tj/Y++IvkvujSnfmxhX3v5kxI6HxOfPPzXWP2ON2lb3OPDL58fH3tE3ltw7Jb438cqo3tTn4/xT637uAQDaSqrk1tWyubHSmQTTD5ZJCjdSHaTUFaA1bE51tvaoMSHX27bvEtsP6JqdPrZjrItlHfrHy/NeiqrVK6Nzn/5ZC45u3bsWXgvdsmXP/vbamHvDT6PPo3+L/RY+Hp8/7SNx/te+EnvvvUfEyy9Exb//Ev9e2CVer+gXuxa2/dbtuhbvqfWl18+UKVOyIRNauzdHi9fWN/eQoyTtc3sMO1IXlDQCcRqvIu1f7YQxJY8pBEnrTZ8+fZM+aJuivj5YKXSo742f+umlgYdWrVoVEydOzMYYKTnuuOPihz/8YTawTZJaavzsZz+L++67L3s+0vgj9UmJYmNtavKeB/0rK6PXhsKhQ0bFLj1SMPGN+M5ts+Lfs+6Iq755ecxc0jl23PPwqG6vUxnHHbVn9F0yMy7/5lVxx6x/x32/nBATb382Vg8cGceVBs9uzLYqj4uj9uwbS2ZeHt+86o6Y9e/74pcTJsbtz66OgSOPi7YZhxsAoH6b8r0ydZ9P3bfTQPypwpiMGTPmTV26W0prjqm45557btT39c1BY+pee+zULTp26pANMJrWXlfVPV6965fR8eFpEQtfiFi+LLqtXhaL/nZvPP2rn8ZLD06PUfuOjJPeMyb2fvLvsXb2zKzFxF677RqLX3g2Oi9fFAvmvxz3PNYxenTqGPvu0nD3o9auH7aWFq2p5yXkKGmPYUepGdsf/vCHOj+IUsDxqU99KptSCNDaFfj63jgNNYFLzdeS3/72t1mAU1tqCVL7cf/5z3+ePT9pzI40nkddGnNmF5pidax+vbzTyMKsf2GUxkSpTF1RCkv/dUM8XL0kM/83j8a86BE7jjywuCRpeFuVR+0ZgwrL/nVDjS3Fbx6dF9Fjx6ixKQCAdi4FFvvuu2/WSiM18U8tlM8444y44IIL4vvf/362LElj682cOTM7m2D6ITP98Pftb387zjnnnDj99NPjIx/5SBx11FHxjne8Ixuzorm0RiX41VdfzX68TN/j03ABTQ1xUjeb9qYxda+dtu5c+Kq7LtatXRPde/aK2X+fFXvssmMM7dspOv79tujxjz/E8rtvioUP3BOxak107tY9DhgxPO546J+xYF1FLP/3w9XDKqxdHauyx7IqenZeG9Nf6Bk/fqBvdKyovxV9ktcfeFuslp4qoqk/WQoE0oAtqZtBqoCm1gUbmtpKXftSe0rHkI4lnVs6HVs6xrYMO9LAPWmQzccff7y4pKY0LkX6YKxrag3pQ6suDT1mI0eOzC7vuafwZq7lhhtuyM6nnY6rXPqAnDVrVlYu3b625ulfuG986Lyr4qZb33gcb73pqrjo0wfHtsU1SnY56py4/Lqb3njMb70prjqnus3BXseel113a+m6O26Kay79dGHrjXDwF+J71926frs3XXVOHFXrzvf90Hlx1U1vrJPd90WfjoNrrLdvfPqi8mO5NW66/Mw4+NhL46bC/Gf27hXRa+/4THbdTXHpsRGVJ3wrfnz1j+PcI4vJ8G23x7+W9Ig9j/ufOPJthWXdK+PAUz8fowYuiX/d/pvqMTNGprE0Xo95j87PbrLe8idjyesRPfruWD3fiG2NTAN8vD4v3rypJYV76BGlTQEAbA7SD5WpYv/hD384jj766KyldjqRQKpzpG4rSRoXIrXMTpXZadOmZcvSD3jpxAPpbIuloOSDH/xg9iPokiVLsnWaQ33f5ZtTOrZ0NpnUzT51XU/H0xQp9EknMWjrH6LLNSYoGtinU6xZVxU9u3eIJUurYsY/XopPfO5z8c5dt4+Kla9Fl0IdpmNFVXTu3jPSSBtdunaNx390afztD7dFp969o6pL9Y/Ajzz8SFR17JSetOiwelVh/a7xxOv9Y9p/3uhOXpeWDLNSK/wUXp177rmx//77F5e2jhY768pHP/rRLJVLUjeFNJpuetE2ZkqVrraQ3hx17U/tKR1LqXVA+oBJg9PUPp9za3nve9+bnb61rlAgSaeUTaegqmtqDWnf6pJaZdSV1qYBSseOHZsFSb/61a+KS9+QPsDTNGfOnDdtu7KyMvvDkLrvPPTQQ8WlNaXtNtqww+PD+20Vi/9WOuvKvnHmVd+K4/fsFS8/9qf41Y+vi98/tjwqd9oz9t7vwNh328fid/dXn/ll22Mvje99bv/Yavmz8cBvfxHX/PbhWNpru9i2y3PxuzsfjQM+emrsF0/GfbffENf99oH4T/ddY+TI/WLvHf4RN/3lxWwbB7z/ozG0sE7prCvDDv9w7LdVr9jloF0i/vHbuPqaB2LJ1jvF0KG7x37DVsWU38/O1tv3zKviW8fvGb1efiz+9Ksfx3W/fyyWV+4Ue+69Xxy477bxWGF7aS+PvXRyfHRk95h/zy/iB1N+H48tr4ydduweT1/1i7h9zoOxeOuRMaz7k3Hjt38cN/7lL/HArOfitSGHxCG79I4lj/wh7nk8tSB6If56/+ux2+GHxLsOOSo+cNS7Y+SO3eKF2yfGxbctyvYn9j00xu7SOV649w/x1xoBxQux06gPxC4DX495t00vzG14W/seOjZ26fxC3PuHv0bNTe0Uoz6wSwx8fV7cNv2F4kIAgPYvtWB+5JFHsh/rSmPK3X333fGjH/0obr755vjNb36zvuV2GucgjU+Xrk/fd/fee+/1t0n1gXSK1eZuQd+jR49iqeWkLuup1XwKetKPk6n1SmOlExSUTnCQ6mWpLvDSSy9l881lU866sqEWE0eO6BndOlbEi8v7x+TbX4sVa7rGiLfuGE/+5oZY+eqyeKX/ttFh7bqoKlTdK6rWxcoOHWKH5x+Nt6x8NfY68J2x0/EfiydefCmu+dk10bFT5+i40x7RPVZF1ZpV0aVDVVR06hIvPv9s8d7erCVbdKRuVm9/+9uzul8K5f785z+32llXWizueuCBB9YngKlyWTr9T2OmtlLXvtQ3lSrMqTVFOta2kj4UNmaQzZT2pa4hhxxySHFJy6rvjVNf0lrql1dff8CUbqezyNR1zKXnpKX69m37hVPjiB27xPy7vhknff7SuK7wB+bu6y6Nz5/0zbhvfpfY8ZCPxoeyNT8UXztt7+j18t/ih5//dJx31a2FP0bXxWXnnBqnnlN9vpSbzjkpPvTpc+LS7Lpb46pzrop/vBxRuUt1t5169doqXr79U3HqeVfFrYVtXvr5C+NvhRp/lx32qx40dNsvxKlH7Bhd5t8V3zzp83HpdYV9zNY7Kb553/zosuMh8dHqnYxd+veKePkfcflF12V/LK+79PNx0pnfjvtf/GfcX5ifvyqttSrmp+O8+/7454sR83/5zfjvk/87JtxW7F7S/cD48vnjY7d4Nu66cmJMTIODProkBh3+9fjWCeWDgy6JhdUNburX2G0tWRgb2hQAwOYk/Qj5zW9+c3237TQ2RxqzbunSpW+qGKYfMpOPfexjWauPVOdK43dcffXVLV6JbEnpWJN0pshNURrLb3Ox9YhD4oXeB8ZVf98qnntxeby2ZHH87crL429/uS8G9uwea1ODi8LzunbFa4VK0uro1LFLzO63Y4zcc494qmuf+PU90+M7l3w31i5/Laq2GRIddhkRVauWR6dOHaOisO7awm0a0pItOsrPDpQCotZoIVTSYkHHv//97+w0rOlgUoKTwoA02mpjprZS177UNaWBL1NlOh1b+kBJx9pW0llJUsra2Dd0ag6WTt80YsSI4pKWVV/QUd+LPHVBSdIH3MaOqZFa1yTN2Vyv3NG7pH4RT8T9F9U+7dWDcfmcLG2I/Y4qzB67X+zQpbDm/ZfFrdWNM+qwSxz1hYvie4X3yHU33Rq33vq12G+r4lUNejaevKx8o/+Mf7y4LKJX/8IWC47eJbK9vP+iwl7V9ODlc2J+dIkdsp0s/EFdXLjdVvvFV753Zhy7V7FPy4svRr27XIeDPz8+9uy7MO6d9M34xX3/LrwX7otf/u834jfZmVDGxwfXj33UI3rU12pu9epIH7+N3lbh9V7/phr+IAcAaK9S1+zUhaPUHfvYY4/NumLUtu2228Y3vvGN7DL90JfOuthSLeJbc/yGNBhpsmDBguyyKdKPpanl9+bk3keXxY0zlkWHzp2iZ8c1sfCVJfHSo7Pj7bvtEh0qt49Vi16Mip69ot/eb4/OAwZGxbIlsaDXNnHpK53jZ7OeiJt/94dYsXhhVPXZOjrse2RU9B0Ui1dUxatzH4m1y5fF6uUb0aK9maVuSWncxfSaTuPKtMaYLyUt2oEpjRuRwo50QKnf2V577VW8ZvOVjqH0gZOOrb6xMVpL6TQ9qVlQY5QCjtY6vU9942LUlzanimopyR4+fHh22VilY3viiSeyy+bWv2eXiGWv1ewyUfTiqqz5Q0RqaLJL/+gVy+K1Z+uLDI6Ni667Ir549N6xbbwWT/7tvrj9FxfGfXVtuLZli6PBTkf9exZ2oXDfde9kVO9ldWuYm868MK5MrTyGHRGfmfT/4tZrLo1P1xzEYwP2iT0H9YhY+GjcWqMh1vK47cl5EZ13jN3WNxyqa/yMfWJg38JF1kJjI7bVo28W5tSwz8Co3pS2HgDA5it1O/ne9763vht2CjNqSz+4llo9XHTRRVm3l5bSPGPcNWybbbaJY445Juuenjz4YO2f6xon3e6yyy6LhQsXFpdsHqbe9u9Yu2p1rF78UixfvCiqKjrFon7bRv/tto+/LXg1Og5+S+xw0idjm2PGxQ7jPxFb/deBseqVBbH29WXRrUNV9OzZLdYMHh4d3n1ydOy7TVStXRNVb9krXnn+6Vj8yIOx4PHyQfxb37333pu1OEoD6bamFh+ppTzsSAHB5hx2tLeQI7n//vuzcGD06NHrU9D6pP1P/d5Sc7fUKqU11JcC19c1JfnLX/6SXaaxOhqbIqexU1JrlTRYU33jpWzqr/2vpZSgV886WxNsm3WlWRWrUuus6hWjZ33NDj59eOy31ap44sZT4kOnfj7OKfyBuuy6moOrNllD971tlyziWJXtZPJgXHfeqXHsYZ+Kb//qvpjfa+8Y+5Xz4tONzjo6R8ONbgrXp/Rh5rxYGD1i4G7rm3dU675bFnQsnJf6YDZuWzPnFf5w9RgYb95UCjoWRrYpAIDNXGnMiUcfzQaKi6222ir222+/rPzcc89l33mT0notpTVadKQfK9Mgqqlre6qjNLVFxnXXXRfz5zfml8P2ZemC+bHwsX/ES//+Z6xduyYbbPSJqs7xo9nPxOu7HRQ9Dzkxlr+6PNa+vjo69u0dle//QPT70Oei4h0fjnWjxkbVmFOiy6EnRae+A2PdmtWxbt3a6LjV4FjXq1+sLGzvtdWt112kPWnxoCMphR3J5hp2tMeQI0l92VJCllpIpNNKvetd73pT8poG/UwfjCeccEK2XmsmavWdHiqNLVJf06Xbb78968KSBqxJp8Qtl7pATZ06dX0fviQl3Z/85Cez8u9+97ts23Wpb3lj3fhoaikyNA44p/ZI0PvGp4dVRrz8ZNx9d2H2xkcjW/OAc+o+i0pqGRKr4rX5ZS0+9h0bu9QXjGyMBu57308Pi8p4OZ7MdrLck3H7VefFqfc9G9GlMnY5oLh4g/4Vz85bHTFwtziqfDiOwr2csNugwuW8ePKuwsW/741nl0QM2nN8lK+28/iRsWMsjCfvTV2/Gretf9/7bCyJQbHn+BpbivEjd4xY+GRkmwIA2IylCv+QIUOycgo1PvShD8XEiRPjM5/5THzrW9/KWj2Xus6/7W1vyy5bSlNP9doU6Xt8Gnh1S7Ns6ZJYsuDF6NipUIfr2Ck67XVodvaUzjsOj67bvTWWzn8pnnjmlZj7j3/Hkzf9Jv76pU/Hc//vh1ExdJ/ouOt/RceBgyPWrspCjqoOhW2sW1vYTueo6DUgVq2tilVVrdf9qC7pNVQaYqA1VdeIW+CsK7WlPmfPPPNMNppwanmQRsJ98cWNGQ2g7bTXkKMkPZZplOI06nIaqDONPLzzzjvHdtttl51q6gMf+EB2DKkP37XXXtuq/dbSB3VpwKTa0oCidTWHS609/vOf/8QBBxyQncJ3hx12yFpppOWlUalLo0mnUXzPOuus7GwtaRCnn/zkJ3V2i0mhShoAZ6P6hdU668prM16MbQ8+KEaMOCQO32+76LK8S2w96oPx5bNOjpGVy+MfV389Ln/0tbRivLjtwXHQiBFxyOH7xXZdlkeXrUfFBz/75Tj14I7xuxl94+gDh8T2u+wdWy9fFQMP+nicddqw6Luqe2Gbb5xlpe6zriyOv113e1Rn+9Wy5YX7f/Ka38X99d33l8+Kk0dWxvJ/XB1fv/zRSOerOfOqm+LU/Suj+9rusfXwQ+O/371fbN/lhbj/B7fGg4UVKg8eGwcN2T522GVtrNr7uHj/wLtj7r7fiu+cMT72Xv2nuOfx5fHIy9vHOw7YNXY74B2xWzp1+Taj4qiPnRTv2rFbLPnXdfG9O56LNVF4ffYfGe8qvO9HjRwYq5e8HoMO+XSccsjgWPmvKTHpt2mdNY3b1kvPRv+R7yp8hoyKkQNXx5LXB8Uhnz4lDhm8Mv41ZVL89rn6WwoBAGwOdtlll/UnDkhne0zf70vfmfv27Zt9R06XaTy79EPejBkzsutaQhrstL6TCDSXdLxpSt11Uh1gY5XOutKSZ+7clLOuJA22jClcV1XRIXp27xYdCvWYnnu9M1bvc1R03ml4VHTtHmtefDY6/uGnsfK6y2L1n6bGPp26x95Va2Jhr/6xvN82UbF6ReH2hddH4XmqKFR1KtatiR69ekanZ/4eL817IdZ1rL/ZdKobtWSrndTi/owzzsh+jE+tkmbPrj5LZEsqnXWl1YKOpBR2pAp5eiFvLv2nUgKVTluaBh5tbyFHSRqUNA3ykvrr9e/fPzu10k477ZSV05sxnaLp5z//eXa6pdZUCjrqCxjqO0NK2s90TOnDPQUd6QMsnT42fQim0xan5+P9739/NkhT+tBJIccll1yyvhlfbelDqb7ApS7Zm37YEbVOL/ufuH/Gf6LXDrsU/uC8PfY/5KA4aOTQ6L7qqbjvR+fF13/3XHbb5D/3z4j/9Err7Roj9j8kDjpoZOzYa3k8N+OWuP3Xd8byHfaNvXd/W+yx/0Gx/65d4unffyfm9H93jWCjSUFHYb76vneIXQp/FN9evO+h3VfFU/f9KM77+u+itJc77D829ttv79j/oMJx7L9H9E3HceV58X+zqk/b+/TDa2PYASPjbbvvl+3ji3feFA/2rnV62ZcejHsfXR077jo8hu85MkbuuUsM7rwknrz35zHxigeyQCVZ9vCMeKzzLrHn8JEx6h3viJG7dIzFM2+Myy+7O9YPN9WobS2Lh2c8Fp132TOGjxwV73jHyNil4+KYeePlcdndTR+4CgCgJTSlIrn//vuvH6sufc9N3+Wvv/76bNp+++2zuklp0P4UeNx2221Zubml7/Hpx8SWVgo6UiU4b0FH6blv6DWQXiNrC1Onzl2i3/aD41279i7UFUbEkkLVpWOHiqiIqlj3q29H71cXxeh3jY1BlTtFj8LSFT17xYuDhkantWuz7VetWxudOlbFik594vA+c6Nqzh3x+MLCdelOGrj/lgw60tmD0g/wSfoRPp0CuaXPvFIKOqqP6qyHq95x76eyYmtIL8T6KqTt1ea2zyl9TSFHGrV4Yyr4LSF9GNS1D+lNnfaxoSZxqdle6pKTwo26pO2mkXxvueWW7IOnLul+0plY6ru+Lk35owQAAOWa8p3yS1/6UtYaO1UI77777rjpppvitddKPx9Vt/JI3VlKA5WmM7CkLi7NLdV/WiPoSL/2H3300Vkr9aa0lkitBtL3/K9//evFJc0v/Yhcqg9u7A/HG3oNlK5PrXbeesDo+PgOVfHKNrvFfdsdEY/NfTG69+kdKx+8Pbb73Y/iHW8/PNZVrY537j0obuq6Q9zed6/oHWuzU9B27dUjunXvGSNWzop9F/06vv3rJ+OFxevSHdQbdLR0nSeNI5nGXUzSqWYvvvji7D5b0r3vuCJi4h7Fo2rloIMtS/qQLj+HcrmUjKYkekMGDx6cdXtKrTtSovrCCy9krWtSK5ZSN5b6pC47adoYLf2mBwCA2tL3z3QaztQK/mc/+1m9g2umSvERRxyRBQRp/Lo777yzeE3zST9I1tXNvLmlMOVTn/pU1nq7qdJjkMbyayktGXRkimHEoEFbx6nDB8RWnVbH8r0OiicGHxIz5lXEK2siuk+7Jo56/rE47Mj/iu49Is5ctlu8tNVbouvq5dG9W6fYoevrMXrtQzHktfvjOzc/G/94elWDIUfSGnWe1EIp9Tr461//2irjRAo6aFVpcNH6AokePXpkU0tI/RZTa46mvIGFHQAANFVTvkv269cva9GcfsxrjPSDYRrAv6mnZK1P6l6eflykWqqrpMcj1Wk29gfUZGNeC9v27BQn7j84+u3+X7Gw1/axcvn8+Pu6PeOpqm1ip0enx8e2eT3+XLVt/LnfsOi5/MWIDh2jQ6+t4q3LHojhC+6I3zywKJ56aWXW5aVwr8Wtvlle6zqCDlpVQ606kpTkppS0OaVBSdN9pjcxAAC0ps25IpkGjmzpQUi3NI15PZTW6dq5Ivq+/YiItx4QB3eaHntVzI4n1uwUz3R4Syx9dW2h3tQheqxcFP/uPTo6bvWWWL7g2Xj9n9Pi5b/fFR2zpy3Vf/IXYjSGoINWV99YHSUpOU6BR3N8qKaWHClx3dSQY3P+AwUAQNvYnL9DttbYHFuaUr1kw6+LN0KKDj37RffBb4uDtp0fe1cuiy6FalKXbl1i9Wuvx21rDonHVm4fa578Wyx/enasW1k9jsuW2pKjRNBBq0tvqg0NCppCjtSHq6nn7E73URqTo7newHn/MAAAgCR9B0/dYXz3bRltXa9I959sCUGH9ki0mvSGSiFGQ4MalbqbpNYYq1evLi7dsHS7FG6k26ZBgprzzVvaVumDAQAA6rI5f19MPzgKOVpWemzb+jWypTy/gg5aVfoATQP5NPQGS9elgUtT649ScFHfB0LpXNYvv/xyFnSkwAMAAFpL+ffUzbUSmfZbyNE60mPcVmHHlvT8CjpodalJXBpRujHdU9Igpum84YsWLYqFCxe+aUqnKGpo3I/m5IMfAIDaNvfviKm1dWudSpZqpdfM5twCqL0TdNAm0gdpSo27dOlSXAIAALSm9F08/QDpDCv5lIKULTVM8YqmzaQkM43Z0atXL60lAACglaTv3uk7ePou7nt422nJlh2lbW6pz6+ggzbXrVu37Fzd6fSymm8BAEDLSN+103fu9N07fQenfWiJMCJtc0sOsQQdtAvpTZgGKU1N51ITui35TQkAAM0pfbcudVPZ0IkBIA8EHbQrnTt3zprQDRgwIPsQTolzGrQ09Rv0gQwAAA1L35nTeHjpO3T6Lp2+U6fv1uk7dvquzeapvOW7VvAbVl1zPOvhqnfc+6msCAAAALC5ufcdV0RM3KNCiw4AAAAgNwQdAAAAQG4IOgAAAIDcEHQAAAAAuSHoAAAAAHJD0AEAAADkhqADAAAAyI2K7N+zHq5696wvZ0UAAACAzc2f9vlOxMQ9KtYHHVUXD8+KAAAAAJubirNnZ0GHrisAAABAbgg6AAAAgNwQdAAAAAC5IegAAAAAckPQAQAAAOSGoAMAAADIDUEHAAAAkBuCDgAAACA3BB0AAABAbgg6AAAAgNwQdAAAAAC5IegAAAAAckPQAQAAAOSGoAMAAADIDUEHAAAAkBuCDgAAACA3BB0AAABAbgg6AAAAgNwQdAAAAAC5IegAAAAAckPQAQAAAOSGoAMAAADIDUEHAAAAkBuCDgAAACA3BB0AAABAbgg6AAAAgNwQdAAAAAC5IegAAAAAckPQAQAAAOSGoAMAAADIDUEH7dcDF0ZFRUVUXDC9uID2Yv4vx2XPzbhfzi8uAQAAaB8EHQAAAEBuCDo2J89PiXGphUNzTVpKbHFWPD0rbrz63Pjs8YfGoXsOqvF6GLRnYdnhp8WZ374qbnxgTryyongjAACAzYigA3LvlXjq95PixD0HRfchI2PcKRfG5BumxbSHa3Y7mf9wYdkdV8Wkr54W40bvHv27D4oLHyxeCQAAsJkQdGxOBo+PqVVVUdXQNH1C9brHXRvz6rq+fPr66Op1ya+nb4wzxwyLnY88M6Y8HDHsmNPjBzfeH4/MWxzL3/SaWB6LF8+NmbddG5d++sgYEvMj1hS3AwAAsJkQdEBOPXXzZ+OAIeNi0l3zY8hxl8adzz0Vj/zuB3H6saNjWGW/6FZc7w3dol+/IbHPe8fHGT+8NeYunxenDi1elRMrnrgtJn3mqDjtBoOoAgBAXgk6IIeeuuG0OPR9k2N6jI7TpzwSj1x/RowZ/OZoo0HdKqNyYLGcE6/87ao48/LbYrGWKgAAkFuCDsiZFQ9cGCcef1U8FaNjwl9uix+cMKyO1hsAAAD5JOiAPFk2Lc499tyYHpUxfsq18bV39CteAQAAsGUQdEBurIjp/3dmTJofUfmVa+OqE4YUlwMAAGw5BB3U8Mqj02LKtz8b4w4/IHauqIiKbBoUu485NE776lVx26OvFNdsooVz4rarz4zTamx/5zjg8NPiwl9Oj/kriuttghY/hvbqiWtjwjdmFQpjY9Lnx7RJd5UVz0+vfuxH71x83Cti0J6HxrjPTI7bnmji4154zUz75eQ485RD49A9B63f7s6jx8Vnv31jzFpYXA8AAGC9sx6uIiemT6gqPKNVcdy1VfOKixrlqVurJhw3pPq22TSkavRhY6rGZNPoqiHrl0dV5SFnVE19qni7Rltcdf8lY8u2U1k17JDi9g8ZVlVZWl45puprty+uvknpWM6/v3p+Q1r8GOq3vLCvo9O2959QNXN5cWEjNPV2dZl5yT7Zse1zyczikpYzb8rY7L7GTim+ylbPrZr6pTHrn8fKPep63Curxnzp1qq51bfYoMWP31p16Qllr43CNGT/4nbLXzMxuur039W91dJ+Nm4aW3Xtc8UbAgAAm52UbRS+2xcJOvKjCUHH4tu/Vl3ZThXRT/yg6tY5i6vqqnMvf+r+qitLldnKMVUT/lIMJDbk1Ueqrjypsnq/ho6tuvS2R6oWry5eV7J6edXcaT+oOvWQtN6QqlOvL1RcNyLoaPFj2KDlVfd/vTpoGP2dRgYNy2dWTdg/7fPoqgl/28SUo2pm1aUj0rb2qbp0VnFRC6oRdKyeW3Vt9vwOqRp7ya1VjyworrTe8qp50y6tGjs07V/h8Sk8nxs82r9duj4gGXLchKprp8+tWv6m18ziqplTTl//vJ9x+5u3Ou93ZxQDl+K0R/Xr8I0gpnw6o+rWjUoHAQCA9kTQkVcbGXSsb1FQ3pJiA1KoMKYyVS4bU0EvVYILFdzPTa2aW7uyWlup0lw5vmrqlMYFHS1/DI306p1VZ2TbPLLqyseLyxow8zujqx+Xi2ZuuOK/IY9fWTUmPQYjLq1q+fYc5UHHI1X3n184jsLzdeWcDRzF4jurvlYMYyZM38C66XU8dGzVD6Zv+PlcfNsZxeDqa1V3bmCzb2qJAgAA5EYp6DBGx5bs+Rvj1OwMHaNjwk23xoTDGneGjn6HTYhbb/ha7FO45bmfmxxpVIj6PHXNmXHiNfOj8qRr49rvjY0hnYpX1KfTkBj/wxtjwk5T4vQv/6C4sAGtcAyN1mtMTPjFGVEZt8Vp50yJ+cXFdXpoUuH4pkfsPyEmf2mfTR5PY/6saTEtFQ7bJ4ZlS1rHKzedG6d/IwqP/VVx6m4bOIp+Y+LM808vPD6z4txfTIsGR+wYPDYemTU1Tt9/w89nv/eeG5NPLhTmXxg33pHT8VcAAIBGE3RssVbEtB+eHlMKtfHR35kcX9t/46ra3d5xblz6lcqIB86MCb+sp0q/8LaY9NUbIypPj6u+Mz6GFBdvUK/R8bXLL41B8xuMCgpa4Rg2UrfDzo2rPl3Y5g1nxISb66t0PxVXnXNmdTjz/TNin2YYNXTeE1nMEWPeOqRVByGddsON0W0jHvt+h42NUwsPT1w+LWY2NPDs4GExrFexvEH9Ysyxp2elyX+ZWXhVAAAAWzJBx5Zq4W0x5eJC5b6yUCH/xD7FhRujW4z57wlxZKF049W3Fqrub/bUzZNjcuEujjz/jDhyYHFhY40YG6e/t1iuTyscw8brF0eeMznGV86PyYVtT1tWXFwmtXI57fcRoy+aHGfs2zyxxIrl1UFNZb/u2WXrOTXOPGkjHvtuI+OAY1NhWsx6NFvSLPrteUCMTYUn5se8bAkAALClEnRsoV6ZPi2uKlxWfmZcjGn0L+e1DB0TYw8rXN4xJaY9Ub3oDU/FtF/eVrg8MsYe0ui2HGWGxJhjxxTLdWv5Y2iiwWNj0vfGR+X8SXHmJdNrtjB4ekqc+dEbm63LSrX58VQxNNh9h9RcohUdNyYO2KgQq18MyvZxVqxozqYXlZXVLYZueqrhLkMAAEDuCTq2SCti5l8mZ6UT929KS4iSITHykFRpnRaz5tTqpjF/Vky7o3B52NgYM7R60cYatFND+9YKx7AJKo+bEJOOK1TnLzgjJj1YqtHPjxu/cUbc2IxdVtrcnkNiY6OVQTsdkF3OfKoZI4lu3aN/sQgAAGzZBB1bpHkxP2u9MDZGvnXTatulSuv9T9Tq+PH0nJiSLvffvfFjc9TSrXdDVddWOIZNMiTGX3JtYe/eGOz0lZsnxOnXzG/WLittbezQpj67m2DZKzH/0ekx7fdTYvK3z43PHn9oHPDWA+Lc4tUAAMCWTdCxRZofT92ULoekFv+bpHLIyOxy1rKa/RDmPzUzuxzTYl0pWv4YNtlO4+PSHx+ZDXZ67v9Njgn/PTnmN2uXlZJ+UblTdalZW0m0EyuenxU3Xp0CjQNi54qKqOjdPwYNOyAOPfLE+OxXL4zJN0yL+QNHNzlQAwAA8kXQsUXrH91buGFBv14tPThmyx/DphjyiQlx6f4Rt335szFpfkt1WekW/ftXpz1Pzc/RUJzzp8Wk43eO7juMjHGnpEBjflQeNiZO/cql8YMpt8ad0x+JeYuXRzpd9tzpk+LU4s0AAIAtm6ADWtQ+MWZscQyREWNizG4tk8oMGlo9cOusx+dF84000naeuvmzccCgQ+PMGyLGnn9t3DlncSyvmhv3335nXHnJGXH6CUfGmP2HRWW/dpxyAQAAbULQsUVbXrzcnLXvY1jx4IVx+ldnReXQIVH50IVxxv/VOgtLM6ncZ0xkUcfl02JmS9xBK0qP2YnvmxzT9/9a3Dpvbkz9+vgYs1u/Zu7uAwAA5JWgY4tUGZXplKoxJ556PlvQZKWxOPbpVasa2ql6/sZmHeCzXCscw6ZaMSsmfe7cmF55elw1/f6YfFJlTP/GGTHpgRZIIoaOjCNHpMK1MW365px0zI8bLyk8ZrFPXHr5hDhyI8ZfyUNsBwAAbDpBxxZpUAzJKsU3xiNPZwua7Kkn7s8uD6h19o3KHXavLjw+r1B1bZpSAFG3lj+GTbMipn/79Dj3gcoY/71z48iBlTH2/EnVZ2H50qSYvqy4WrPZJ8Z+/sjC5fy48PIbm/yYt7nnp8XUGwqXh50eY7Pnt5GefirmFIsAAMCWTdCxReoWu+8zNivdNj2d+LSpZsX9N6Yq9dg4YJ9+1YtKdtsnTk+X19wfjzSpgcGKeGTWjcVyXVrhGDbBigcmxRnfmB6VJ02KCccVmyWsPwvLuS3ShWXIMafH6emubjgjLr1jM23V8fxTkT3rI4bEoGxB47zyr/urbwcAAGzxBB1bqMrDTszOUjHrO1NjWlPrxA9Ni2sfKlweNy7GDK5etF6/kXHAcanQxK4UK+6PadcUy/Vo8WNoqmXTY8KnU/eLsTHp/PE1TntaOgtLi3RhGXhknHF+dauOSR89N6Y1e6uRVtS7+0aMyfFKTLtpcrEMAABs6QQdW6pCpXj82ZWFOvGFMemapoyj8Urc9uNLY1ZUxhmfGFv4t7bKOPKEFEM0rSvFU9dMigs3dKMWP4amWBHTLzk9LnwoYuwvLo3xOxUXr7dPnP79CTG6hbqwDPnED+Lak9JjMilOfN+FLdBFppVsTJenh66KS39f2UzPHwAAsLkTdGyxusWYz0yO8YXa4W3/fWJcuJGtC5765elx6uXzs64Zpx9W92/v/Y49PWu9kLpSnPHLjQginp4SZ/73zDj90ykoaUjLH8PGWnHHuTH2glkR770yLj2p7jE/uu17Rkz6+j4t1IVlSIz/4Y0xofC4z7+rsC/vOzemLSxetTlY3+Xptri/Mfu9bHpc+Okzo//5E7LWPRtUHCT3lWWGLgUAgLwSdGzJBo+NST88tVA1nh7nHntUXHjvK8UrGvbUTZ+NE8dPifmV49/UNaOmQqX1/1LrhfkxZfyJce4dG97+ikevihNHnxj3nzQpzhjfiMFBW/wYNsKyaXHuRycVjvbIuPJ7aZ/q0y1Gf/XSOKOyhbqw9BodX7v5zvhaFnZcGIfueWic+cs50bhH5g2vPHFbTH+iONNa+o2JsamVTlwVE763gRBo2Zy46jNj49y4NCZ8YvfoXlzckMq3jiy8KiOmTZ+10Y8HAACweRB0bOEqj70y7ry+UCmfX6ikv3NYHPrfk+O2R+uqAq6IVx69LSYdv3PsPHZyTB96alw7/do6umbU1G3/r8W1afsxPS48vLD9L0+JWQvfXH1dsXBO3PbtcbH7sNNi2rAJceMPx8eQTsUrN6Clj6FxXonbvnpiTJofceSPfxCnDi0urk+vMXHuj0+PyhbqwhIDx8SEOx6Jaz83OqLwuEwav3v0f+tR8dlvT4lpj86PV+q4vxWvvBJPPXRbTPn+mXHinoOy9Vu/NUi3GPPlq7JBVWddcECM+Xx6vRSvKlnzSsz5/aQYt8/ucdrj4+LWX56RhReNMmJMnJhaGV09Ic69oWYroxXPz4mnpB8AAJATZz1cRU5Mn1BVeEar4rhrq+YVFzXG4n9dW3XGIZXVt82myqphh4ypGnNYYTpkWFWh3vnG8hN+UDVzcfGGjbT4bz+oGju0tI3CNHR09bYL07DK0vIhVWMvubNq3urijUrHcv79xQUNa+ljaMi868dXb3//S6tmFpdt2LyqqSdV7+/owjEuLy5tbvOmX1l1xnuHFI+9sdOQqtEnT6i687niRmqZN2Vstt7YKRvzKqvWqNs+NbXq9P3f2J/KPd78PA45rvw5vL9qQrZ8QqHUsOWF19Xo2tvdIz0PY6uured4AQCA9i9lG4Xv+VGR/smCjouHZ0W2ZCti/kO3xa1TbospD94fj9w1pzgg5JAYfdiYOOCYMTHu2LExenATx7NIv8TfcW1MvvrGmPaXaTEn23hx2yeMjVOPOTKGDczW3AQtfAybsRXPz4rb7pgW9//ltpj1t0di2sNvDPdZqPDH7oOGxD6HjY4D3nlAjBkxLPq19UO0Zn5Mv+HauPamqXHbDdMja38xdHSMPWxcjPvoiTF+/8pstaZY8fRtMfn8SXHV76tfh0P2HxtHjj89zv3EmKjc8l4aAACQCxVnz46YuEeFoAMAAADY7JWCDmN0AAAAALkh6AAAAAByQ9ABAAAA5IagAwAAAMgNQQcAAACQG4IOAAAAIDcEHQAAAEBuCDoAAACA3BB0AAAAALkh6AAAAAByQ9ABAAAA5IagAwAAAMgNQQcAAACQG4IOAAAAIDcEHQAAAEBuCDoAAACA3BB0AAAAALkh6AAAAAByQ9ABAAAA5IagAwAAAMgNQQcAAACQG4IOAAAAIDcEHQAAAEBuCDoAAACA3BB0AAAAALkh6AAAAAByoyL796yHq6ouHp4Vab8emPHXYgkAAIC2sP+o/yqWaG8qzp4dMXGPCkEHAAAAsNkrBR26rgAAAAC5IegAAAAAckPQAQAAAOSGoAMAAADIDUEHAAAAkBuCDgAAACA3BB0AAABAbgg6AAAAgNwQdAAAAAC5IegAAAAAckPQAQAAAOSGoAMAAADIDUEHAAAAkBuCDgAAACA3BB0AAABAbgg6AAAAgNwQdAAAAAC5IegAAAAAckPQAQAAAOSGoAMAAADIDUEHAAAAkBuCDgAAACA3BB0AAABAbgg6AAAAgNwQdAAAAAC5IegAAAAAckPQAQAAAOSGoAMAAADIDUEHAAAAkBuCDgAAACA3BB0AAABAbgg6AAAAgNwQdAAAAAC5IegAAAAAckPQAQAAAOSGoAMAAADIDUEHAAAAkBuCDgAAACA3BB0AAABAbgg6AAAAgNwQdAAAAAC5IegAAAAAckPQAQAAAOSGoAMAAADIDUEHAAAAkBuCDgAAACA3BB0AAABAbgg6AAAAgNwQdAAAAAC5IegAAAAAckPQAQAAAOSGoAMAAADIDUEHAAAAkBuCDgAAACA3BB0AAABAbgg6AAAAgNwQdAAAAAC5IegAAAAAckPQAQAAAOSGoAMAAADIDUEHAAAAkBuCDgAAACA3BB0AAABAbgg6AAAAgNwQdAAAAAC5IegAAAAAckPQAQAAAOSGoAMAAADIDUEHAAAAkBuCDgAAACA3BB0AAABAbgg6AAAAgNwQdAAAAAC5IegAAAAAckPQAQAAAOSGoAMAAADIDUEHAAAAkBuCDgAAACA3BB0AAABAbgg6AAAAgNwQdAAAAAC5IegAAAAAckPQAQAAAOSGoAMAAADIDUEHAAAAkBuCDgAAACA3BB0AAABAbgg6AAAAgNwQdAAAAAC5IegAAAAAckPQAQAAAOSGoAMAAADIDUEHAAAAkBuCDgAAACA3BB0AAABAbgg6AAAAgNwQdAAAAAC5IegAAAAAckPQAQAAAOSGoAMAAADIDUEHAAAAkBuCDgAAACA3BB0AAABAbgg6AAAAgNwQdAAAAAC5IegAAAAAckPQAQAAAOSGoAMAAADIDUEHAAAAkBuCDgAAACA3BB0AAABAbgg6AAAAgNwQdAAAAAC5IegAAAAAckPQAQAAAOSGoAMAAADIDUEHAAAAkBuCDgAAACA3BB0AAABAbgg6AAAAgNwQdAAAAAC5IegAAAAAckPQAQAAAOSGoAMAAADIDUEHAAAAkBuCDgAAACA3BB0AAABAbgg6AAAAgNwQdAAAAAC5IegAAAAAckPQAQAAAOSGoAMAAADIDUEHAAAAkBuCDgAAACA3BB0AAABAbgg6AAAAgNwQdAAAAAC5IegAAAAAckPQAQAAAOSGoAMAAADIDUEHAAAAkBuCDgAAACA3BB0AAABAbgg6AAAAgNwQdAAAAAC5IegAAAAAckPQAQAAAOSGoAMAAADIDUEHAAAAkBuCDgAAACA3BB0AAABAbgg6AAAAgNwQdAAAAAC5IegAAAAAckPQAQAAAOSGoAMAAADIDUEHAAAAkBuCDgAAACA3BB0AAABAbgg6AAAAgNwQdAAAAAC5IegAAAAAckPQAQAAAOSGoAMAAADIDUEHAAAAkBuCDgAAACA3BB0AAABAbgg6AAAAgNwQdAAAAAC5IegAAAAAckPQAQAAAOSGoAMAAADIDUEHAAAAkBuCDgAAACA3BB0AAABAbgg6AAAAgNwQdAAAAAC5IegAAAAAckPQAQAAAOSGoAMAAADIDUEHAAAAkBuCDgAAACA3BB0AAABAbgg6AAAAgNwQdAAAAAC5IegAAAAAckPQAQAAAOSGoAMAAADIDUEHAAAAkBuCDgAAACA3BB0AAABAbgg6AAAAgNwQdAAAAAC5IegAAAAAckPQAQAAAOSGoAMAAADIDUEHAAAAkBuCDgAAACA3BB0AAABAbgg6AAAAgNwQdAAAAAC5IegAAAAAckPQAQAAAOSGoAMAAADIDUEHAAAAkBuCDgAAACA3BB0AAABAbgg6AAAAgNwQdAAAAAC5IegAAAAAckPQAQAAAOSGoAMAAADIDUEHAAAAkBsV2b9nPVxVdfHwrEg+VVVVFUsAAABbroqK6mow+VNx9uyIiXtUaNGRAynE2NAEAACA+tOWQNCxGfImBAAAaDnqXJs3QcdmxJsMAACg9amLbV4EHe1c6Q3lTQUAANC21M82DwYjbaea443jzQcAAFC/5hiY1OCm7YfBSNupjU0HS+vXNQEAAFC/uupRpamxNnZ9Wp4WHe3Exr6RmsKbDwAA2JI1tfXFxtxOC4+2o0VHO9KYACKtU5rqU75OXRMAAMCWrK56UvlUn8asU9KYdWhZWnS0sQ29CRq6fmPeQN5sAAAAzdc6Y0Pb0bKj9ZVadAg62lBTQoyNXd5YghAAACAPNjVgqO/2G7s8EXa0Ll1X2tjGhhxpWe3lpWUNLW/sBAAAkAd11Xc2NJXb0PLa6lpW0tB1tJzqeEmLjla1MW+E8vmOHTsWSwAAALS2tWvXFktvbq2hZUfb06KjjTQ15GjodgAAALS8hupoDdXZ1Odal6CjnWjoTeJNAQAA0D40VFdTd2sfBB2tqL4Xfe03Smm+dhkAAIC2U19drby+Vl4uV99ymp+go5U05sXemDIAAABtZ1PqcOp2rUPQ0YY29KZIl+VlAAAA2s6G6mr1lWldgo5WUNcLvL4XfWl5+WVpAgAAoO3Urp/VvqytruX1rUvzEXS0A/W9SWpfAgAA0LbU39o/QUcLq+tFXr6svjdB7TdJfesBAADQOhpbTytfXtc69d2O5iHoaCfqeqOUL/NGAAAAaFvldbPyOlpdy2g7go42VPvNUH5Zu1yaBwAAoG3Urp/VLtd1SesTdLSgul7YG3qxl1+fyqUJAACAtldXPW1Ddba6rt/QbWg6QUcbKb2oa18mqVyaSsrLAAAAtL7G1ttqX9K6BB2taEMv8rquT8tKEwAAAG2nofrZhups6nStR9DRQjbmRVy+birXNwEAANB26qqnlaaS8vKGbMy6NJ6gow2UXsxNfTMAAADQ/tRVx1PXa32CjnYkvQEamgAAAGg7ddXTyifaB0FHK6nvRd/YN4M3DQAAQNva1Pqbel3rEHS0Aw29CUoTAAAAbW9D9TT1t7Yn6GgBjXlh116n9EYpn8rVngcAAKB11VVPqz2Vqz1fl8asw8YRdLSyjX0R1/VmAQAAoG00pY6mTte6BB3tmDcDAABA+6S+1n4JOtpQQ2+M8utS2ZsIAACgbdWumzVUT1OHazuCjnbIGwIAAGDzoP7W/gg62ljtN0V98948AAAAbau++tmG5mldgo5WsKEXebq+NJXz5gAAAGif6qq/1VWvq009r+UJOjYD3ggAAADtg/pZ+yfoaKe8eQAAANo39bb2SdABAAAA5Iagow1sTOonIQQAAGhf1OnaN0HHZsKbAwAAoG2pl20eBB0AAABAbgg62iEpIQAAwOZB/a39EXQAAAAAuSHoAAAAAHJD0AEAAADkhqADAAAAyA1BBwAAAJAbgg4AAAAgNwQd7ZjTFAEAALRP6mvtl6ADAAAAyA1BBwAAAJAbgg4AAAAgNwQdAAAAQG4IOgAAAIDcEHQAAAAAuSHoAAAAAHJD0AEAAADkhqADAAAAyA1BBwAAAJAbgg4AAAAgNwQdAAAAQG4IOgAAAIDcEHQAAAAAuSHoAAAAAHJD0AEAAADkhqADAAAAyA1BBwAAAJAbgg4AAAAgNwQdAAAAQG4IOgAAAIDcEHQAAAAAuSHoAAAAAHJD0AEAAADkhqADAAAAyA1BBwAAAJAbgg4AAAAgNwQdAAAAQG4IOgAAAIDcEHQAAAAAuSHoAAAAAHJD0AEAAADkhqADAAAAyA1BBwAAAJAbgg4AAAAgNwQdAAAAQG4IOgAAAIDcEHQAAAAAuSHoAAAAAHJD0AEAAADkhqADAAAAyA1BBwAAAJAbgg4AAAAgNwQdAAAAQG4IOgAAAIDcEHQAAAAAuSHoAAAAAHJD0AEAAADkhqADAAAAyA1BBwAAAJAbgg4AAAAgNwQdAAAAQG4IOgAAAIDcEHQAAAAAuSHoAAAAAHJD0AEAAADkhqADAAAAyA1BBwAAAJAbgg4AAAAgNwQdALBJHoqLdt09dl4/fSqun1+8ihawMK4/rfzx3j0u+nvxqs3Z0rlx95TLYtJlU+Luua8WFwIATSHoAGAL8uZKcl3TsIPGxTEnfzUmTZ0RTywu3hRayto5Mfn4o+OU834UkydPiFPec0JMnlO8DgDYaIIOAKhl5fw5Mfu+W2Ly2SfH4aNGxYmTZ8SCtcUrobn96/b4wdxiOTM3fnD7Q8UyALCxBB0A0KBXY/plJ8dBH/lRzH69uAia01t2iYOLxZKDd9mlWAIANpagA4At2hFnXx3XXv3G9NOLvxKnvX9E9CleX7Ly75fFBy+5J1YW56HZ9D86zv/FF2J0/0K5x8A4+AtXx/nv7V19HQCw0QQdAGzRdthrVIw+8I3p4HEnxznfnhIPPTg1vjWma3GtaiunXBLXPFacgWa09f6fjGtnPBJzH7onfnr6qNi6Y/EKAGCjCToAoC59hsVJ37ksTupRnM/MjWvuMkokAEB7JugAgPr0OCje86Fiuei5WU/GgmIZAID2R9ABAA0YuutBxVLRGqN0AAC0Z4IOAGhta1+NJ6ZNiW+ePi5Gjdg9dt41TfvEqPefHF+8bGrMnF9cb0NWPh+zb5kSF33l5DjmPaOK20nTqDh87Bfim1PuiScWF9fdkMVz4+4pl8QXTy7fp91j2EHj4piTvxqTps6I5zaU8RT2Z+bUywrbODpG1LUvS4vrtYXC8U3P9m1cHD7qjePbedTR649vY/dv5QsPxfWXfKHGYz/iPYXn8Mo3jnXB1E+9cV+F6ZSpC6uvqGFhXH/aG+vsvOun4vq6XgN/v6RsncJ02tT1rYuWzr0nriy8Dt44tsLjXjiuK++r6/4AIN8EHQDQgCceu6dYKhq89ZvOyLIxFjzwozjxgEIl9FMT4po75sSC9aesXRkL5syI303+enzwoFFx4pVz6j/Dy8q58cdLTo4Rex4ex3x5Qlz52xkxe+6rxSuTV+OJh++Ia877VBx+yLg46/fPF5fXYe2rMfPKwrYKFf5TzvtZ/O6+8n0q3NX8OTH7vlti8tlXx/R6Q5OV8cTUr8cxow6PD579o8I25sYbmUHZvhy0gX1pCWsXxvTJ1cd3YrZvc2qGP4vnFo/v5Dh83/S4PxRL1xavq09hm3dfPC5GHDI+zrryjhqP/dK5hefwknSs42Pyw63R+mdlzP7R+Bj1nk/FRYXXwRvHVnjcC8d10ckHxYgv3BLPbeiYACBHBB0AUJ+VM+IP1xXLRQfvuXvUPBdL4z33my/EYR+9rIHAoOTVmH7JuDjmsofqDjsWz4rrrpxRFiY04PU5cf0XPhWT6xxDdWXMnHRCfPCSRm6rToVtXDY+jjl7aswuC0jqlO3LMXHKb1qplcHrD8WksYfFiZc19vjS4z4+PnjuHfUHA2ufj999+ag45eoGgqgk3fdHvhC/eLI430KemPqF+OCkel4nRUt//9U49UqD6AKw5RB0AEBd1hYqvZddENfUqLwfFh8YM7BY3jgr/35JnPrVO96ocPcYFsefNyX+/NAjMfexwjRnVvz56i/E6P7F6wuemHxuNFw/7R2jx58b373x9njowVnV2/nXjPjzL78SR5RtJ50tZtIVt7y5sv/wz+JLV84tzhTU3qfCNOfBwvZuvCTOef/g6FZcrdxzhYr2iZPLKv39R8UZhfua8a/iNv51T9x88bgYvv7sNSvj7vMuiT82tktNU619Pq7/8skxeU55BNA1hh/9lfju1VPjzzNmxEN3TI1rv/OVeN+wmtFVCg++NKXscSmz4OYJ8T+/L289U9hq5UFx2sVXxM13FLZ5zy3x69I2X78nJl9Zq0VQc3pwQpxy9j2xsvCYn3bx1XH7PdX3f+3FH4+RNc4WVDimy6fEH5ueZgHAZkXQAQDlXn81nvv7lDhr7EFxYnkIUDD09JNrBQiNtHZOXPm1n8UTxdmIg+Kc66fExPEjYodShbRj19jhwE/Gtb88N0YWF2UBxU/KwpEyXd97btz84Iy49rzx8b49BkefPsXKetfescPbT47La2yn4Pf3xPRaG3pi1u3xXLGcDD/j2zX3qaBrn8L29jg6Tvv2ufG+yuLCksV3xKQLChXt4mxsPz5+esvVcfqYnWPrUnbQdWAMH3dB/Pp7499oCfP6LXHR9S3bwmDp7d+Lb04rDzl2jtN+cU/c/J2T430HDosd+veOPm8ZFqOPPjm+e+Md8dOTdi6uV23mBZfF72qHMStnxA/OKzvegq5jLojb77oizhl3UAx/S2GblTvHyGybN8fl42pus9m9vjJW7vzxuPaOqwv3PyqGVlbf/+hxX41f31jr+X99atz/UPmeA0B+CToA2KJdeULZ4I5pGjEq3nXChLi+RkuA6grtVZ8d0aRuKysfmBo/KMtMhp7xhTht13q2tPMx8Ymji+Xklhkxs3b9dOtxcfl3xsfwhgYL2fnwOL7GCWOejJdq9RhZ+nLdrRYa67nfXx2/W9/ipWu876tfiIO3Ls7W0vWgcfHZ7YszBc/9cVZZ8NPc5sZvf3JLjUDi4AlXxDn79y7O1dJxYBx8zrfjjBq5xB3xm2k1H7Cl06bWbOGz/cfjp98ZFzt0LM6X6zg4jjhvQpxWdszNb3CcduEXYnRdr4OdC4/3+GK5aOYzLxRLAJBvgg4A2ICh4y6J2yfXU6HdoJUx/Y4pZZXuYXHSYcOK5br0jl32Kb/+nphdO49I+7HBfRkYQ3ctFjNz4rlaLRSG7npYsVRt9qRzY9J9z8fKRg1cOTfu/vVDxXIyLj4wpp4gIbNzDH9XsZg8/FA82VJdKeY+ENc/XCxnxsdH3z+4WK5Hx2Hxvo+OKM5Uu/u+WTVa08x+6JZiqdrwUz4Yo2t1Eamh64h4/4c3cL+bYvtx8f631xe9dY3he9Y8NfLsefquALBlEHQAQJ26xtZjPh4Tf3lP3H7x0U0MOZIX4rl/FouZOfHN99RqRVJrOvyC8m4dz8eSDQzyuXLx8zH7vhlx99SrY9Jl1aeITac8/eCVxRXq0WfM+Di9vBXD6w/F5JMPj2EHjI8vXnlLzH6hga4OK5+PJ2qECVPilD3rPp7qaZ84ZUpx1czSDR5Xk71UeDyKxcyYETG8EU1xdth9VM0WO7PmlnXteT6eq9HbpmscvOeGu6ZsM7AFu6/sMjC2KRbrsvX2Ldx1BgDaKUEHAFu0I86+Oq69uuaUDSr5r1kx44qvxvFvb9rgo29YGs/VCASayfwZceVXxseoEbvHsFGHxzEnnxynnP3tmDy5+hSxNU83W4+uI+KMqy6L42sNxhmLH4rfXfLVOOaQfWLEyZfE7+bUsa3FC2qM79GeLHihVhOYnQdHPT1qaqocHKOLxcwLS8pa4iyMJx4oFjOjYofaY5a0N52LlwCwhRF0ALBF22GvUTH6wJpTNqhkI1oANE3X2HrYsBi+R+OnbWq1Jnnu91+Pww86OS767UOxoK5WEf13zm43tDEDp25/WEy8MQ3S+fEaZ3wpWXrfz+KL7z8ojkmnaG2wS0vvGFprvxueto6+TW4lAwBQP0EHALSortG3xoCUo+KMH02Nm29s/HRa+dARc6fEl74w9Y2BPHsMi/d99ZL49R/uiYdmFE8xO+OW7HYTxxXX2ZCOvWP40V+Na++fFTP+cEWc8/4RsXWNsSdWxuzJJ8cXpz5fnC/o0SdqjoE5LibW2u+GpwviiEY1s9h4XQv7VsP8BXWeueZNFi+MJ4vFTDqbTbH4ZgtiZSO63qxY20D3HwCgRQg6AKBFDY6h+xSLmXti9mNNr/zOvuNnMbNYzs66ccWU+O5pR8fInQdGn/6b2AylY9fYeueD4rRvT4kZM26J79Y6PerdF0194777DI631ghwZrx50NQ20menXWKHYjkzrbBvjXjIFzwyq2Z3nL0Gl22n8DzWGNtzTtz/yIa6B70ajzwwo1gGAFqLoAMAWlTv2H3fmmfzuGbqHY1rYfAmC2P238paVcS745D96gk31s6J6b8vlpui687xvgkT4rTylh2vz4kn5hfLsXOMHFN+33Piyt/XGK2z7ex6UBxfHsK8PiV+8tvyx60Ohcfr+p/cU5yp9r5R+5QNTjowhu5Z87H+4y9ujica6s4z9+b4Sc0TtQAArUDQAQAtbIcDj46RxXLm91+PL14zt2ygyzqsXRjTL5tS1nqjLjNido2+FiUr44kpl8UPXijO1mPm1ZfE3euDi8boE33XBx9dY+SYcWVBQMRzl30lvnnPwuJcPZbOieuvvCMWFGdbRMdhccQptU4Ve+6n4qIH6mmBsfbVmD7pKzGpvEXK9l+ITxxe83S5Iw/9VM2WIg9NiM9Meqju53HpjLjoMxM28PwBAC1B0AEALe0t4+KcGudxXRl3X3B0jDr5krj+vrmxYPGrsbQ4LZg7I66/7KtxzNsPihMn126FMDCG7lqzFcVFn/96XPP352Pp0pWx8vV0+3viyi+Pj2MumBFRY5yNOiz4WZxy0Kg48ZKpMX3uwlhZap2wdmUsfeahuObcc+PK8nEoRoyI3csGreh64Kfif2u06pgb15x2WBzz5avjdw8X9qnsuJ57+Ja45ryTY8S+4+KsB5rWnmVjDD3+qzVPnVvYtys/elD1vv29+JjPnxszb7k6vji28FhfWZ5y7BynXfrxGF57sNQ9xsXpNbqvRDxx5fjq53HanHgue/4eit9dWXj+Djo5rpzbNYbuPLi4JgDQWgQdANDiusbIz14RE2uEAtVnNDnr5KNj1KhRMaI4jXrPyXHW5Ftidj0DXY485lMxtFjOzJ0a3zzh8Bix7z4xbES6/afiolvmRIw5N771oeI6DXo1pl/59TjxPQfFsGG7x867FqZh+8SIw8bHN6eWVf57jIpvTRxfs0VDDIz3fefqOK1GoLAyZt/y7fji2MI+lR3Xu8Z+Nb45ZUYTu+w0QenUuXXt2wnFx/ygo+ODX/52/G5OeZuM3nHEJVfEOW+v+VxVGxjHf+uCOLhWgJQ9j58aF+/Knr/x8cVLqp+/PiddET/8RM1xTgCAlifoAIDW0HFwHD/55vju8cNqdPeoX9cYfvw+tYKFgmGfjKsuOayBs4EUbvn2L8SvvzMuhjbT6Vu7DhsXE6+/Ik6qq87eY0Scc/2UOOfAmt086tc7Rh+4e4P732zSqXOvnxoTG/mYd608Or712z/F5R9ooBXG9uPip7+9II5o8NS96bm7LG4+Z1T0LS4BAFqPoAMAWkvHwfG+CVPjobumxMTTj47Re+xco8LfZ+dhMfyw8XHOxVfH7TNmxc0TDou6zsC6wwcui3uy08COiuGVpSp87xh64NFxzhW3xIz/98kYvqFuKwUjz5gRt199QZyetrNzeVDRNbYeNiyOGP+VmPjL2+OhGy+I42t0mamlz4g47eoZ8VBhn741/rAYPmxgWbBQva3R7/94fOs7U+PP/5oR157c2LCnGfQZFsdv4DFff5x3XRInDWtEYPOWcXH5/ffEry/+ZLzvwLLt9d+5cJyfjO/eeE/23O3QMeKlhe3kVDQAsAWpyP496+GqqouHZ0U2XVVVVbFUrXw+lUvzpXLtad26dTUuS+UBAwZktwMANgcr4+7z9olTphRnC077xSNxzv7FGQA2O4sWLYoOHTpERUVFNpXK5ctqT0l5OSkvJ7XnaZqKs2dHTNyjQosOAICWsPKhuOs3xXJmVAx9U18kAKC5CToAAFrAE9dfFteUDyq7/f4xfPtiGQBoMYIOAIBGWnDLJTH5vuffOBVvPZ675evxmQseKs5VO/iz40JHYQBoeYIOAIDGWjk3Jp18eAw7YHx88bKpcfff58aCxa/G0sL03MMz4u6pl8UX379PvOvLU+OJ4k0yO38hzvjAwOIMANCSDEbaAtLgoeXK50uDi5aXa08GIwWA9mnB1E/FqLPvKc410s7j4vKrLogjdFsB2OwZjLR9MxgpAMDG6li8bJSuMfz4C+Lm64UcANCaBB0AAI209QeuiDl3TY2fXvyVOOmwYTF8597Fa6p1rSwsO/DoOP3iq+P2GbPi5gnjYnif4pUAQKvQdaUFpK4m5crnS11Rysu1J11XAAAA2h9dV9o3XVcAAACA3BF0AAAAALkh6AAAAAByQ9ABAAAA5IagAwAAAMgNQQcAAACQG4IOAAAAIDcEHQAAAEBuCDoAAACA3BB0AAAAALkh6AAAAAByQ9ABAAAA5IagAwAAAMgNQQcAAACQG4IOAAAAIDcEHQAAAEBuCDoAAACA3BB0AAAAALkh6AAAAAByQ9ABAAAA5IagAwAAAMgNQQcAAACQG4IOAAAAIDcEHQAAAEBuCDoAAACA3BB0AAAAALkh6AAAAAByQ9ABAAAA5IagAwAAAMgNQQcAAACQG4IOAAAAIDcEHQAAAEBuCDoAAACA3BB0AAAAALkh6AAAAAByQ9ABAAAA5IagAwAAAMgNQQcAAACQG4IOAAAAIDcEHQAAAEBuCDoAAACA3BB0AAAAALkh6AAAAAByQ9ABAAAA5IagAwAAAMgNQQcAAACQG4IOAAAAIDcEHQAAAEBuCDoAAACA3BB0AAAAALkh6AAAAAByQ9ABAAAA5IagAwAAAMgNQQcAAACQG4IOAAAAIDcEHQAAAEBuCDoAAACA3BB0AAAAALlRkf171sNVVRcPz4psuqqqqmKpWvl8KpfmS+Xa07p162pclsoDBgzIbtfWXl++IpavXBWrV68pLgEAAGh+nTt3iu5du0SP7t2KS9rWokWLokOHDlFRUZFNpXL5stpTUl5OystJ7XmapuLs2RET9yg+moKOZpWCiXLl86Xgorxce2qvQcfyFSvj5VdeLbyJK7IPms6dOnpDAgAALSLVg1avWZv90LpuXVVs1a93dO/WtXht2xB0tG+CjhaU3pDlyudLwUV5ufbUHoOOV197PV5+ZWkM7N8vevZoH2kqAACwZXjt9RWxcPErsVW/PtG7Z4/i0tYn6GjfSkGHMTrYoJWrVseixUtj0DYDhBwAAECrS/WQVB9J9ZJUP4GGCDrYoMVLXo0B/fpEl86di0sAAABaV6qPpHpJqp9AQwQdNGjV6tXZoKO9e7Vd8zAAAIAk1UtS/STVU6A+gg4alJqFdevWpTgHAADQtlL9RPcVGiLooEFr166LTh07FucAAADaVqqfpHoK1EfQwQYZARgAAGgv1E/YEEEHAAAAkBuCDgAAACA3BB0AAABAbgg6AAAAgNwQdAAAAAC5IegAAAAAckPQAQAAAOSGoAMAAADIDUEHAAAAkBuCDgAAACA3BB0AAABAblRk/571cFXVxcOzIpuuqqqqWKpWPp/KpflSufa0bt26Gpel8oABA7LbtaZXli7LLvv16ZVdNs0z8dsv/yDic9+O9w8pLkqeuiW+8P0X44Rvnhr79y3Mr10Rz//9D3HD72fE00vWRKe+u8URHz0xDh/SrXr9tUvjsWk3xdR7Ho75r3WKPsPfHScdd2js2qf66urtRZx+7k7xz/93Xfzl6Z3e2HYtT9/8lfi/+GxM2vfF+M0NNxfWXRHdt9kjDj/xxBizQ6fiWmti/sw/xK3TZsYj/3m1MNctdjrgmDjhmP+Kyq7FVUr3eeGe8fyUn8ets1+NKOz3Uad8LMZstzT+edOUuOHvz8TS6B27H35qnHrI9lHaerL0iTvjhl/fHf98aUX18Z54XBw+tHRAAABAbc1TR2maRYsWRYcOHaKioiKbSuXyZbWnpLyclJeT2vM0TcXZsyMm7lGhRQftxsszroxvT1sVo085OyZecHZ87rDehQ+SVcVrl8aDP7s4fvSPAfH+L1xQuP4rcdJ2c+JHP/xDPL2muErmxbjr9qdjr09cEJd9p+6QY735f4qf3/5q7Dv+a9n9ffRtC+K3P7wlHlu/vRfikUd6x+iPfjEmXFC4z3NOjB2euCF+fM8LxetLno5br58Vle//amG9s+PUvRYXtnN9/Pqmn8b0bY+Nr5x7QXzz4yPj9Zt/EDf8a0XxNoUjevCq+NZV/4qBx3ypcP8XxNc+vH3MvurHceszNQ4IAACAjSDooJ1YGo/NfiZi+KjYf4c+0b3nVrHTAcfHCftUt25Y8+9p8cvZQ+O4U46O3Qd2y67f9fBj44g1d8ZfZr8RHkQ8EQP2eU/s2r0425C5A2L0hw+NnYrb2/3wQ2OvlffFnOeK18dbYsxH3hW7b5P2p7DOwN3i8HfvFotmPBrPF9eo9kLssP8b+7X7MUfHO1fOiulxdJz6zu2jT+G2W73tPXHEAWvigbnFW655Im6f+mjs+r6PxvuHb5VtP61z3JjVcftfHo3l1WsBAACwkQQdtBN9Ytfhb4m4/+a49d8vx5q1xcUdqy/mPzcn1gwfGbtvVT2f6bh97LRnxIPPvlhckAyNnQaVdw5pwPChMaTUBSXpuVUMLFzMX7C0ej5Z/mI89tc/x62//nl8+/8ujYumPBrx8vKo2eZiz9h1x7L77NQ9Ohcudt1xu7JuKp1iq223j3jp5ci2/uIz8cjK3eLtw8sPKGLwkMIBzXw6yo8IAACAxhN00G5sNeq0+Mqxg+Ox/3dxnHHeD+LXf30hlhcDjzXLX46YPSW+/uWvxBfKpsl/rr7+DdvGwMYOcdG3dzTY8OPlv8aPzv9u/Pax5TFg2MFx0imfjW9+4l3FK8v1iT6NaEHSo2vvYqlg1fJYFI/GNefVPJ4v/PBNBwQAAMBGEHTQekqtNOrTsVsM/q8PxJfOuzi++ZGh8dxN343v3lUcD6NTp4h9x8c301gZtafD31K9TjN7esZN8cjeH4svfeQ9sf/wt0Rl324Rq8pae2yKDp2iU+wTJ51bx/Fc8J7YqbgaAAAAG0fQQSvoH9sOi3hsXs0OGfOff7pYKlrfXaVTNl7FCe/ZNuY/9ULW1WPb7faMmFsod03jYNSayrufNKc1ayJ6di/rfrImnnr8X8XyJtpmcIyIZ+KFJZ3efDw9G9n1BgAAgDcRdNAKqsffeP62W+Ivzy2N5a+tiJdn/yam3lc+iOjSeHDqlJg2+8VYWrh+6Uuz4t7pL0blkO0Lt47ovse74qhOf44rrrwzHlu4ItvG8oXPxAM33xIPLqneQnPrMyCNGfKn4j4vjef/8vO46z/bF6/dRN33iEOO7BzTfnpV3P7vl6uP57WX4+m/3hK/ndlMrUYAAAC2QIIOWsVWoz4ap4+JuP2HF8RZX78wfj5naJzwwd2K1yY9onLb1fH3X383vv71r8e3Lr8vlo/6ZJx+SDFY6Lh9HP6lM+MDA+fENZO+XthGYZ0r/xCP99otdm2h02dvNWp8nPr25dX7POG7ceuad8cpRzZfp5LB7/5inH3MtjH7V9/OjuesiT+NW5/oHcOGNnaQEQAAAGqryP496+GqqouHZ0U2XVVVVbFUrXw+lUvzpXLtad26dTUuS+UBAwZkt2tNryxdll3269NCaQIAAMBGaMs6yqJFi6JDhw5RUVGRTaVy+bLaU1JeTsrLSe15mqbi7NkRE/eo0KIDAAAAyA1BBwAAAJAbgg4AAAAgNwQdAAAAQG4IOgAAAIDcEHQAAAAAuSHoAAAAAHJD0AEAAADkhqADAAAAyA1BBwAAAJAbgg4AAAAgNwQdAAAAQG4IOgAAAIDcEHQAAAAAuSHoAAAAAHJD0AEAAADkhqADAAAAyA1BBwAAAJAbgg4AAAAgNwQdAAAAQG4IOgAAAIDcEHQAAAAAuSHoAAAAAHJD0AEAAADkhqADAAAAyA1BBwAAAJAbgg4AAAAgNwQdAAAAQG4IOgAAAIDcEHQAAAAAuSHoAAAAAHJD0AEAAADkhqADAAAAyA1BBwAAAJAbgg4AAAAgNwQdbNC6deuKJQAAgLalfsKGCDpoUJcunWPV6jXFOQAAgLaV6iepngL1EXTQoO5du8aKlatizZq1xSUAAABtI9VLUv0k1VOgPoIOGlRREdGvT69YvOTV4hIAAIC2keolqX6S6ilQH0EHG5Q+SNasXSvsAAAA2kyqj6R6SaqfQEMEHTTKtltvFStXrY4XFy7OmooBAAC0hlT/SPWQVB9J9RLYkOoGP2c9XFV18fCsyKarqqoqlqqVz6dyab5Urj2lUYTLL0vlAQMGZLdrS68uez2WLnst1hX2qVPHjlGhzRgAANACUj0oteDoUKhz9OnVM3r36lG8pu0sWrQoOnTokNWD0lQqly+rPSXl5aS8nNSep2kqzp4dMXGP4qMp6GhW6Q1Zrny+FFyUl2tP7TnoKEmDAK1e42wsAABAy+ncqVN06tSxONf2BB3tm6CjBaVgolz5fCm4KC/XnjaHoAMAAGBLI+ho30pBhzE6AAAAgNwQdAAAAAC5IegAAAAAckPQAQAAAOSGoAMAAADIDUEHAAAAkBuCDgAAACA3BB0AAABAbgg6AAAAgNwQdAAAAAC5IegAAAAAckPQAQAAAOSGoAMAAADIDUEHAAAAkBuCDgAAACA3BB0AAABAbgg6AAAAgNwQdAAAAAC5IegAAAAAckPQAQAAAOSGoAMAAADIDUEHAAAAkBuCDgAAACA3BB0AAABAbgg6AAAAgNwQdAAAAAC5IegAAAAAckPQAQAAAORGRfbvWQ9XVV08PCuy6aqqqoqlauXzqVyaL5VrT+vWratxWSoPGDAgux2weXn0sSfjsSeejOdemBfLV6wsLgVgS9S9W9fYYftBsevQXWK3XXcpLgU2F4sWLYoOHTpERUVFNpXK5ctqT0l5OSkvJ7XnaZqKs2dHTNyj+GgKOppVCibKlc+Xgovycu1J0AH5cN+MB+O2P06L1WtWCzgAqCEFHp07dY4jjxgTB47at7gUaO8EHe1bKejQdQWgma1avTq+/5Ofx29vuyOWLlsm5ADgTdLfhvQ3Iv2tSH8z0t8OAJqHoAOgGaXWV5O+/+N48smnY/ny5cWlAFC39Lci/c1IfzvS3xAANp2gA6AZXXXNdbFg4cuxdt3a4hIAaFj6m5H+dqS/IQBsOkEHQDP55+w58fiTT2VjcgDAxkh/O9LfkPS3BIBNI+gAaCZ/+NOfY/mKFcU5ANg46W9I+lsCwKYRdAA0g5cXvxLzX1xQnAOApkl/S9LfFACaTtAB0Ayeeua56NjJRyoAmyb9LUl/UwBoOt/KAZpB+vVt1UpjcwCwadLfEi06ADaNoAOgGaxZsybWVTktIACbJv0tSX9TAGg6QQcAAACQG4IOAAAAIDcEHQAAAEBuCDoAAACA3BB0AAAAALkh6AAAAAByQ9ABAAAA5IagAwAAAMgNQQcAAACQG4IOAAAAIDcEHQAAAEBuCDoAYIt0YHzuW+fH9y85Jz73zuKi9uatH4ivXVTYx4lfjU+1130EANodQQcAAACQG4IOAKB9evw3ceE534jPnXVJXPGX4jIAgA0QdAAAAAC5IegAAAAAcqMi+/esh6uqLh6eFdl0VVVVxVK18vlULs2XyrWndevW1bgslQcMGJDdDmh/fn/HXXFbYYLNRxqM9IjYtfuKeOzmi+L7jewaMmDEoXHsQW+PXSt7RfdOxYVrVsTS+XNj+j1/jFseWlxcWNugOGjcEfHOPXaMyp7FGxZuN/+fd8bPfzUoPnbJyKiMBTH9q9+PKdXXFnwgvtaI5fcc+ME48eBdY3DfbtVXL18Wz8/5c1z5qxmxqHoJbFaOPOyQeG9hAtqfRYsWRYcOHaKioiKbSuXyZbWnpLyclJeT2vM0TcXZsyMm7lGhRQcA0CjDj/9cfG38u2Lvwb2ie4c1sXzJglj02ppY3aFb9Bm8exzx4U/E597Vv7h2uV1j/Jc/EceN2rk65EjByOJlsTy6ReXIo+LLX94hOhfX3Fg9Cvv05ffvFYN7RvU21xQWdu8Vg9N2Pz6yeiUAYIsi6AAANmjAuz4eH9t36+gca2LRw7fG/551fnz1wu/Hed86P7787V/HtGdXFL5V9Ipdj/hIjH9r8UZFoz/+gRhdmQKOZTH79svjc+dcFF+7+JL46jn/Fz//y3OxpnLraFqbxf6x+4j+sWjmr+O89du8PG55srAvBX12GxXHaQwJAFscQQcAsAF7xbHv2Dm6F0rLH78zzvvFjHi++opqi/4ZN/3g1/GP1Gul09YxYsyB1cszR8RBu/YqXK6J56f/JK7407zqxZnF8eDNP4mbHllWnN9YnSL+c19c8at/lnVRmRd//NGMeGpVodhhUOx8QPVSAGDLIegAABo2cq8Y0jcVFsRDN96XLXqzx+KmJxdkpe7bDIl9s1LB4TvGtmlIjlXz4qGb6x6/Y/p9zzZxLI0V8dS/7qzjtnfG/FeqS51SOgMAbFEEHQBAw7bvHX3S5WuvxvMNJBKL5r0ay1Ohd//YNVsSses2varH33hlQfwxW1KHx1fE6mJx47wai/5cLAIAFAk6AICGlU6v8torcU91qW5PLYvXi8WSwT2rm1Qsf7W6tQcAQEsTdAAADVtbvOzZLw4qFus0pFf0SJfr1lS37CjTvXsapwMAoOUJOgCAhj21OJamy569Y3ADZzEZMKh3NmBpLFkcs7MlEf9YUow8em/9xrgdtb2zX2RDgAAANANBBwDQsJmPxHOvpsLWMWJs+RlVyu0ax+6ydVZa9Mxf47GsVCg/tqA6JOm9Y4x+V/9sWU394+i9d6wOSAAAmoGgAwDYgJlxw0PzsgFDu7/10Djvo6NicPUV1QbsFcd+9oOxd8oxXpsb9/xxbvXyZOb9MXv+mkKhW+x6xEfiYyPKw45BcdBHPx5jdiyOAQIA0AwEHQCwResWu773G/GdCXVNX4pPFRtwLLr5V3HLI8tidXSKAXscFf8z8Rtxydc+F+d9s7DeVz4YY3bsFrFmQUy/4WcxrcaZWebGlD/8PZ5PPVg6bR37jv9SfOdbX43zvnZOfGfip+O4PXrHogcfifnVKwMAbDJBBwBs6Tp1is5d6pq6R+f13xQWx7SfXRLf+e3MeOyldDrYTtG979YxoGeniJXLYv6j98XPJ30/pjxSXL3cI7fG//7k1njw+WWxfE1E5+69YkDfbrHm1Xnx4G9/Ehdev6K4IgDApqvI/j3r4aqqi4dnRTZdVVVVsVStfD6VS/Olcu1p3bp1NS5L5QEDGhgBDmhTv7/jrritMAFN8NYPx3mf2D0GxIKY/tXvx5TiYthSHXnYIfHewgS0P4sWLYoOHTpERUVFNpXK5ctqT0l5OSkvJ7XnaZqKs2dHTNyjQosOAKBNDdhn68ii/FcXrx/EFACgqQQdAEAbGhnHva36bC1LX3gkHsxKAABNJ+gAAFrU+M9+Nf7nwwfGrrV7YA4eFaf9z9ExvHehvCaN1zGzejkAwCYQdAAALatbrxg88oj43P+cX+OsLt///FGx94BOEWuWxew//ipuqnG2FgCAphF0AAAt6o9/+nP84+nFsXzVmhpndVm9fFnMf3Jm3PDDS+KKPy8urg0AsGmcdaUFpLOklCufL51Fpbxce3LWFdj8OOsKAM3FWVeg/XLWlfbNWVcAAACA3BF0AAAAALkh6AAAAAByQ9AB0Fz0rQRgU/lbArDJBB0AzaBnzx7RuWOn4hwANE36W5L+pgDQdIIOgGYwaNttolMnH6kAbJr0tyT9TQGg6XwrB2gGb91lSKxZu7Y4BwBNk/6WpL8pADSdoAOgmey/78jo2MHHKgBNk/6GpL8lAGwa38gBmsl73n1wVAg6AGii9Dck/S0BYNP4Rg7QTPr07hXjP/j+6Na1a3EJADRO+tuR/oakvyUAbBpBB0Az2m/k3nHk4WOiS+cuEc4QCMCGFP5WpL8Z6W9H+hsCwKYTdAA0s0PeOTo+esK46NmjR3TrpnUHAHVLfyPS34r0NyP97QCgeVT/3njWw1VVFw/Pimy6qqqqYqla+Xwql+ZL5drTunXralyWygMGDMhuB2w+7vrL/fGX6X+LxYuXROfOnbXyANjSFb4Grl69Ovr37xvvHL1fHPLOA4pXAJuDRYsWRYcOHaKioiKbSuXyZbWnpLyclJeT2vM0TcXZsyMm7lF8NAUdzSoFE+XK50vBRXm59iTogPx57bXX46WFi2LlypXFJQBsibp27RrbDBwQPXv2KC4BNieCjvZN0NGCUjBRrny+FFyUl2tPgg4AAID2R9DRvpWCDmN0AAAAALkh6AAAAAByQ9ABAAAA5IagAwAAAMgNQQcAAACQG4IOAAAAIDcEHQAAAEBuCDoAAACA3BB0AAAAALkh6AAAAAByQ9ABAAAA5IagAwAAAMgNQQcAAACQG4IOAAAAIDcEHQAAAEBuCDoAAACA3BB0AAAAALkh6AAAAAByQ9ABAAD/v737AbKqvPOE/zNWp3gxDoSlcdJYA1ZAX4RFEv8iKSKLxeJ0tMxLhWJkWA1GdAgu0QqSEHYYNozGP4Xx1fg3Mu4QphgsRgrTE7YnFKRfEf+gIgtSI+wIM9JZaV+nWcde3/TruOd23yuXy73dt4GW5vHzqTp9nvPcc2/f/+c83/uc5wCQDEEHAAAAkAxBBwAAAJAMQQcAAACQDEEHAAAAkAxBBwAAAJAMQQcAAACQDEEHAAAAkAxBBwAAAJAMQQcAAACQDEEHAAAAkAxBRx922mmn5UsAAAD0JdprfZegAwAAAEiGoAMAAABIhqADAAAASIagAwAAAEiGoAMAAABIhqADAAAASIagow9ymiIAAIBTg/Zb3yPoAAAAAJIh6DhFSAkBAABOLu2yU4OgAwAAAEiGoOMk6EkKKDEEAADoW7Tp+jZBRx/lwwAAANC3abf1TYKOU4APDwAAQN+gfdb3CTo+Bd19EHKXl1vHBwgAAKBvqtSG664dp53X+wQdJ1nxm7yrN7wPAwAAwMlVbZtN++3kEnT0MbkPhA8IAABA31XaZtNu61sEHX2UsAMAAKDv0Vbr+wQdJ1F3HwofIAAAgL6jJ200bbiTp/OZ/8HOjz++a3RHkeP38ccf50uHFdflyoXlQrmr6V//9V+7XC6dim+3UC4oLpfT3eUAAAB9UU+Ch0I5Ny8tl5s+97nPdblcaSq+3YLickG5OnrutB/uivjJmPyzKeg4ocqFBaVhQ2G5UC5dLhdmdBdwFE+F2yqe5xSXi1WqBwAAOJVUCg3KhQ3F82qmcgFHcV3pbRUvFxSXC8rV0XOCjl5WGhyUCxty89JyualSwFGoL3f9Ql3xPKe4XE53lwMAAPRF3YUF5cKG4nnxVKir1HOjux4dhesXlwuKyzmlyxw7QUcvKxcYlAYPxfNqp0qhR+ntFJaL5znF5Wr0dH0AAIBPQ08DgnJhQ/G8MJUuF6ZqD1cpTIXbKTcvVq6OYyPo6GXlAoLS4KF4XphKl3NTNYeslF6vsFxQqQwAAJC64jChXDk3L0yly+WmcqFH6fUKy+XmxcrVcWwEHb2sXJhQGjYUlovnxzoVX79QLjcvVakeAADgVFYpQKgUPuTmpeVjmQrXL8wL5ZzickG5Oo6NoKOXlQsQiutKA4jcvHgqV9fVVLx+oVw8zykuV6On6wMAAHyaehoSlAsdiuel5WqmcusX6ornOcXlgnJ1HBtBx6egXFBQGkAUz0vLpVOly4rrC+Vy82Ll6gAAAFLTVbhQbl5aLp4q1eem4ssK5XLzYuXqOHaCjk9BdwFDcRDRVbl0Kr2seLlQLp4XlC6XU806AAAAfU01oUHpOqUhRG5eWi63XDwVX1auXFBcLihXx7ETdHxKugobCuVy88JUulyurrDc1bxYuToAAIBUdRUydDUvTKXL5eoKy+XmOcXlnNJljp+g41PSVdBQfFlxXWm52suK5zmVyl2pdj0AAIC+pNrgoFL4UCgXzwtT8XJxudJlBeXqCsrVcXwEHZ+ScsFBuQCi3LyacmFeKOeUXl6sXB0AAEDqugobii/LlUvrS+sqlcvNc4rLBeXqOD6Cjk9Rd4FDaTBRPK+2rnieU6lcSTXrAAAA9HXVBAiVQohCudy82rrieU5xuaBcHcdP0PEpKhcidBdKlJt3dVnxPKe4XFCuDgAA4LOiu9ChUO5q3t06OZXKBeXqOH6Cjk9RpYChUjBRKPd0nlOpXKqrywAAAFLRVajQXTjR03lOpXKxSvUcH0HHp6xcsFBaVy6kqDTP6aquWLk6AACAz6pyQUO5gKKruq7WKShdzilXx4kh6DgJqgkhyoUW1dYVlC7nlKsDAAD4rKkmfCheLpSrrSsoXc4pV8eJI+g4CSqFDV0FFeXK1a5fqqvLAAAAUtdV0FBNaFFpnUrrl6pUz4kh6DhJKoUN1YYXXa2XU7pcqrvLAQAAUtRdyNBdWFG8XKmcU7pcUKmeE0fQcRJVCht6GmKUu51Kt12smnUAAABSUU3IUG6d7kKM7pYLKtVzYgk6TrJKYUM14UU165RTzToAAACpqiZwKLdONYFGpduu5n9yYgg6TrLuQodqw4xjuR0AAIDPuu4CiGrDjGO5HXqHoKMPONaQQrgBAABw4hxrWCHk6FsEHX3I8QYXgg0AAIAT53gDDAHHyVEIOj6XX+YkquZDUpjKKb68eAIAAKCycu2o3FROd5cXdHc5va/zFdCjo0/oSc8MvTgAAAB6X0+CCyHHyaVHRx9UTTpYUFi3eAIAAODYHWs7qyfr0vsEHX3QsX5ICtfrbgIAAPgsKdcuKjf11LFej97V+Yo4dKVPc5gKAABA3yHc6JscunIKkRICAACcfNpmpwZBxymk8KEqngAAADjxtL9OXYKOU1y5D19hAgAAoLJy7ajCxKmr89UzRgcAAABwCjNGBwAAAJAcQQcAAACQDEEHAAAAkAxBBwAAAJAMQQcAAACQDEEHAAAAkAxBBwAAAJAMQQcAAACQDEEHAAAAkAxBBwAAAJAMQQcAAACQDEEHAAAAkAxBBwAAAJAMQQcAAACQDEEHAAAAkAxBBwAAAJAMQQcAAACQDEEHAAAAkAxBBwAAAJAMQQcAAACQDEEHAAAAkAxBBwAAAJAMQQcAAACQDEEHAAAAkAxBBwAAAJAMQQcAAACQDEEHAAAAkAxBBwAAAJAMQQcAAACQDEEHAAAAkAxBBwAAAJAMQQcAAACQDEEHAAAAkAxBBwAAAJAMQQcAAACQDEEHAAAAkAxBBwAAAJAMQQcAAACQDEEHAAAAkAxBBwAAAJAMQQcAAACQDEEHAAAAkAxBBwAAAJAMQQcAAACQDEEHAAAAkAxBBwAAAJAMQQcAAACQDEEHAAAAkAxBBwAAAJAMQQcAAACQDEEHAAAAkAxBBwAAAJAMQQcAAACQDEEHAAAAkAxBBwAAAJAMQQcAAACQDEEHAAAAkAxBBwAAAJAMQQcAAACQDEEHAAAAkAxBBwAAAJAMQQcAAACQDEEHAAAAkAxBBwAAAJAMQQcAAACQDEEHAAAAkAxBBwAAAJAMQQcAAACQDEEHAAAAkAxBBwAAAJAMQQcAAACQDEEHAAAAkAxBBwAAAJAMQQcAAACQDEEHAAAAkAxBBwAAAJAMQQcAAACQDEEHAAAAkAxBBwAAAJAMQQcAAACQDEEHAAAAkAxBBwAAAJAMQQcAAACQDEEHAAAAkAxBBwAAAJAMQQcAAACQDEEHAAAAkAxBBwAAAJAMQQcAAACQDEEHAAAAkAxBBwAAAJAMQQcAAACQDEEHAAAAkAxBBwAAAJAMQQcAAACQDEEHAAAAkAxBBwAAAJAMQQcAAACQDEEHAAAAkAxBBwAAAJAMQQcAAACQDEEHAAAAkAxBBwAAAJAMQQcAAACQDEEHAAAAkAxBBwAAAJAMQQcAAACQDEEHAAAAkAxBBwAAAJAMQQcAAACQDEEHAAAAkAxBBwAAAJAMQQcAAACQDEEHAAAAkAxBBwAAAJAMQQcAAACQDEEHAAAAkAxBBwAAAJAMQQcAAACQDEEHAAAAkAxBBwAAAJAMQQcAAACQDEEHAAAAkAxBBwAAAJAMQQcAAACQDEEHAAAAkAxBBwAAAJAMQQcAAACQDEEHAAAAkAxBBwAAAJAMQQcAAACQDEEHAAAAkAxBBwAAAJAMQQcAAACQDEEHAAAAkAxBBwAAAJAMQQcAAACQDEEHAAAAkAxBBwAAAJAMQQcAAACQDEEHAAAAkAxBBwAAAJAMQQcAAACQDEEHAAAAkAxBBwAAAJAMQQcAAACQDEEHAAAAkAxBBwAAAJAMQQcAAACQDEEHAAAAkAxBBwAAAJAMQQcAAACQDEEHAAAAkAxBBwAAAJAMQQcAAACQDEEHAAAAkAxBBwAAAJAMQQcAAACQDEEHAAAAkAxBBwAAAJAMQQcAAACQDEEHAAAAkAxBBwAAAJAMQQcAAACQDEEHAAAAkAxBBwAAAJAMQQcAAACQDEEHAAAAkAxBBwAAAJAMQQcAAACQDEEHAAAAkAxBBwAAAJAMQQcAAACQDEEHAAAAkAxBBwAAAJAMQQcAAACQDEEHAAAAkAxBBwAAAJAMQQcAAACQDEEHAAAAkAxBBwAAAJAMQQcAAACQDEEHAAAAkAxBBwAAAJAMQQcAAACQDEEHAAAAkAxBBwAAAJAMQQcAAACQDEEHAAAAkAxBBwAAAJAMQQcAAACQDEEHAAAAkAxBBwAAAJAMQQcAAACQDEEHAAAAkAxBBwAAAJAMQQcAAACQDEEHAAAAkAxBBwAAAJAMQQcAAACQDEEHAAAAkAxBBwAAAJAMQQcAAACQDEEHAAAAkAxBBwAAAJAMQQcAAACQDEEHAAAAkAxBBwAAAJAMQQcAAACQDEEHAAAAkAxBBwAAAJAMQQcAAACQDEEHAAAAkAxBBwAAAJAMQQcAAACQDEEHAAAAkAxBBwAAAJAMQQcAAACQDEEHAAAAkIzTOv7+YOfH/+8ddR1FAAAAgFPNv7mnOeInY077JOhonj+4owgAAABwqql74N0jg46P7xrdUQQAAAA41Zz2w10dQYcxOgAAAIBkCDoAAACAZAg6AAAAgGQIOgAAAIBkCDoAAACAZAg6AAAAgGQIOgAAAIBkCDoAAACAZAg6AAAAgGQIOgAAAIBkCDoAAACAZAg6AAAAgGQIOgAAAIBkCDoAAACAZAg6AAAAgGQIOgAAAIBkCDoAAACAZAg6AAAAgGQIOgAAAIBkCDoAAACAZAg6AAAAgGQIOgAAAIBkCDoAAACAZAg6AAAAgGQIOgAAAIBkCDoAAACAZAg6AAAAgGQIOgAAirQ2LY/rZi2Pze/lK05Fb64+9R8DAByj0zr+/mDnxx/fNbqjeMJ91BZ7Nv9l/GLTb6P9c+3RfvqoqL9xRlxxdk1+hS581BLbn14Za3Yeyhay6w4aHzfceHWMHtB5cXda31gb9+++IJZOG5GvqU7b/hfimXXrY8s/1MTAfi1xMGpjdP28uG1ibX6NiD2rb4otox6OGy7o6nHsjVX3NUf99yfGwHxNqdzO1Nwdl8fP510W/fN1RzoUm+/7fqxprYuBuVjqX1vjwDsRQ8eMj29MmxaXl3keW3duiF8886t4418GxsAPW6L1zGFxxYxbY/qY/H94rynuWRExp4v71bFOY13cMaP8c9f6ZlM0/GpjbP+H1qgZMDBa322NgcNGxYT6P4r6MUe+QK0vroh7GvbnlzKHmuNA1MXQotWG198ecy6t8oUFPrPamnfEc42/ic2v7Y327Lun5lBrtNeNiosnXhXfuGRY9D89v2KVWvdujHVrN8ZzO5ujLbLv/GFjY8qM/xDXlnyPdfjoUOx69i/jqcZX4sD7Ef3rLoxJ106L6ePrsmsWyb53t29YHWs27Yh977VHnFkX518yNf54+sQYXv6L/rC3no3v/enaOFi/OP6qwvdvhw93xFO3Lo/GC26puP040LgsFqzsH3MeuD2uGJSvPEXtWX1DLGnIL1Q09oQ91o5t8xPZdrKPPnftLbtjU8Ovs89B/j3WIff+HR/fXjA7Ls69fXNBx4+bk3j9AaBap/1wV8RPxpzWy0FHe7ZzsiyeOWte3DEpHxK07Y5VS9dG7fzFMaWus6qsj1pi8wMPxYGpC2Pm+flduHeyxvfS/TFl+awY16+zqpzcDkDj3/w6Wj7XHo1nXtP1zmKJ9mzHYMkva2POTZNj+Jn5yo/a4+Ch9hgy6PCuZMdO18Zsp+rObAficP5RorugoyUa71oZ27M95EtmV9oRyQUdT0aUXN72VlP84tENMfCmpTF9xOFd7IPZztlP918Z35sxNoYUqtsPxcG2/jFkQL7ieIKO7HV5ecVD8czpE+PbV0+MkbVFu/fvN8f2xhXx+G8nxp/9ycQYUqHBkduBfDxujDsmCjaAKn10KLb/9YPxzIfj44/rs++es4q+e7LvuAP/rSn+4q/3xSW33hJTqgnSc/aujeuXbozhX7sm/v2EYTEg+77dt3F9rNrWEuNuujP7jir6cu/YJi2Kx3cPi/pZ18S47Pv4wEtrY9Wm5hh9xLqH4vnl8+Ox/WNjyrQrs/Vqov291+OZlRtiz6CpsXTpjBhZafuV+x/3L4jHX8/K3QUdmc4g41BM/8/3xrXn5CsL3n8lHrr9wdg7eXHcm91Olc9In9X29u54qzW/kDm0Y3U89KvBMXPhlTE8X5dr6NeeN+Lwtu849NmgI/fjUcPyWPb03mg/c0Rc/rVRce4558eQ9v3xZktrHHyjNb763Vvi8tx97q2g451X4qnVL8e5s/L/BwD6kELQ0buHrry1IR7/cFrcVgg5cvqPipm3XBB/t3F3FH6DKKftpdWxaczNh0OOnLMmxrxZrfHMlpZ8xdH2rF8Wj73UHuNm3Ro3fL2rJKWc/dHwSEt8ozjkyDm95oiQo6D+6pHR8F+a4uBH+Yqe2v9C/N3ZV8UNE2pi02uVH1M5/c+ZGHNuGR/PN+6ItnxdtL0Sa54ZGXOuKwo5cmoGHA45jkt7bF+5JDYNuzmWzp58ZMiRc2ZdjJu2OP5s7LZY9Ngrh+8XwPH4qCWef+TBeOnL+e+e4pAjJ/uOG/rVq2PxkquibdXyWPdWV1uXIv2Gx833PRxLb54al48ZFaPHXBb18xfHvEtz33UbY0/Rd3tum/T4a7UxffHimDlxbLbu2Jgye3HcNjmyddfGy+/nV8wMmLA4Hll+e369UTFu4oxYumhaDGneEM+8lOuhWF7btrXxFy11MTS/3J2hE6+JKf1aYs3apijKADrs27Q2nv9wbFw75dQPOXL6n517fQ5P55+dC8pr49yiutFjTkzI0Xe1x56nl8WSp/fH6FlL4+cPZu/V66bFlPG599jUmD5tRsz7T59C+HBoTzRua4vf5RcBoC/q1aBj3397PSZ8fezRO1nnjI0Jr26LXRX3Rdti12sR/3780UFF/wsuj9rf7IgD+eVSI6/JNvz1Y2NouX683WqPD96tjdrikKMr/+fVseCSbfHT3C8r+aqe2Pfa1hj9lWzHbMzFMfCXL8S+fH3V/mBEXLx1z+Hn4sMPom3ogBjYw67b1Wp/c22sarsx5k0p6aZdYsjEW2Ne/7XxzJvH8qwAHOlg08p4buzNMefSztC8/Z0dse6BJTH3phviulk3xdwfPxrPv5Nd0H9EXDv/mvjgF+tjTzVfP2dfGJeflS9/on+cP3Zs9n3aHAc+ySQOxUtbXom49JqYMixf1aEmxk26JoZ8+EK8+EYh2h0Qoy8dcfQhNOeMiouz2fbmCqH2+6/Eip//95hy/YwYl6/qVr+xccXV2Xby9Wejofj79r2mWPN0cwyZNs0hCwnJbYN/1tAcI2ctjTuyN2JPD9MCgM+SXgw6WmLfrmEx/Oz84hHqYvgFe+NgpU4MH+2PN//H+TGsXODQ/0txbjRHS6+0oQdE7Yi98VZzfrEKQybMiinNK2NNTxv1H+2NLY1jY8Komogzx8alX26K7W/lL6vW/9cW/3xO7eFjs8+sjSH/sD/2fZhfPqHaY9fzr8SEqy6sMJZIsWzn//KxsenFYwuAAD7Rvjv+9oULYuaEfMjx5upY9P0H46UzJ8acRffGw3cvjDlfHxj/UuhR0W9UfPPK5vhFU896yRX73Ued31yfLzQk2/bGztcjzh/95aO//84e0RFgvPx2NxuO/G3WlEuJc4esPPFo7J00O6YX92KswvBJ0+Lyfi3RsH5rvldH9l3dsDK2x4UxfXIhldkbq2bdEPc0HYr2t5viqR/Pj+uz5evnL491b+TTnPd2x7oHFsV3svrrbpof96zeUdJbMXcYZXbZ6r1ZsWjducviqabmzu/6tv2x+all+QBqbix5bGPR9ih//dueLRvqt734aHadZdGYC6yOU26crVWfBGG5x7kk7l/9Qhwot23MjbvS8GgsmX9Tft3lserVlsq9FfLrL1s4t2P93ONccPej0VB4Hruy/9lYkF1nSWPJe+W9F+Ke7L4uWF80ltVR2uLlxg1xcPC0+PbknvZWjWjd+Wzcn7/P188ves2KZa/f86sfjEX55+K6uYvi/nW7o/WT90Hn++i6H2/Iyjvi8fmdz+919x3dowgATrZeDDoOxYGDA2Ng2Z/+a+KMfvuj5V/yi6UOtcSB3x8YX8wvHumM+PzvtURrUTfhE6c2Jv3RiPi7B1Z0/jpYjdNr44q506L9pw/G8z0Y2bx999bYPmV8jOzYke4f4y7+cjzzYrYD2QPte96I5otGHO7mXDMq/nBGSzx077Ox54QfN7I/3txyYYz8g/xid84eGeP2NMfB/CLAsWh/Y1scnHBRDM19V7bvjTWPbIj+s5bGnbMnx7hzamNg3YiOQ0OmFA1n0f+ir8c5r2UNtPxyz7TF3l27I0ZcECMKwwi1tkauaXr2oDKjGp0+OIaen92199u6Dnb/cW+8nG37Jp13RJeQDge3rIy/eGdyfPf/GtVlb7myzrwwvlHcq6O5KdY0tsfQb10Tl5f8WPC7t38VDz25N+rqb4k7bpsdUwbvjjV33R3rXn0hHlq8Og6OmRG3LVwY86bWZo355XHvujJh9fvbYtVP10dcMitb95aYeV5bND6xJB7buiPWLb07nht4ZXx3/sK444aLou25lbHk4Rfyr8OAuGTChRHvlgv122L7yy9EXHplfO2oHjY9c/C5B+M/Ln40Nn04Kqb/ycL4UfZ4bp7ypWjZ+GgsWLI69hSHHR3jrnw//nzdb6N2yo0d694x4/z4579ZEvc2/Da/UpEPs/ffks71B078Dx3r/+i2XA+cHbHqru/HPd2Fa8Omxpxr62LP0+uLDnVqj+3rn4ztg6bFd+uPfm98Invvv/litpm/dFQM71FPjvY40Lg8FjVkT++sW7P7fEvUD97f8Zqter341T0Umx/OXsedNTFhxu0dj23e5P6xfe3d2eMtvA/q4orcY74uex1jWNTP7Xx+f3TtqGzPDAD6lt4doyN3GEW+WKq2bmy+VMGgARV6DgyIoWV7iZwYNefOiDtvHRE7H5wfy9btjoNd7rnm9RsbM79XF798qtrxOrKduqYdMeGCwzs1/b96eUzauLWLw3mK5AZH3bk27l7XP759ZD/qGDLx9rhvWsRf/3BJPN60P9oq3Z+/Xxv3/OmSWFRpWr42duVX7dB2KA5+KWtUVLuD1X9AfPGtluyRAhy7Dw61xNDfzycO+1+PxncnxzcndfOLds2wGJ7r+Zdf7ImDTY/GYy/WRf0fTYwh+br4l5aOXgg1/0e5GOLz2QXZ7N3W+KCz4mhZA3nVo2vjn78yK/4w14uvSK6Hyr1PvBtTbpxWeZDSbnzSq6NxYzSsyxrz/S6L6ZOObjS/sak9Ji2cHVO+OipGf3VizFxwa0zp1xxr7n8yvnDz4pgzuXNMkcunLYzbJkYc2LAt9pVuQ5r2Ru1NC+Pa8bkxMS6L+nnz4oYR7fH8w8vjtcmLY/G1l3XcxrjJs+N71w2L9teej+35HwH6X3Rlx5gim18v6bnw3rZ4LmvEX37x2Arb/Sq91xRPPfZKfLF+cTyycEZckXucucdTf0vceefsGNe8IX624fD/bt2ysmPclfoFuUNeO+/36PFTY97ShTHhqHdPe+xZ91ise2dUzLlz6eH1c8/jwgfiR1cNjO1PrI7nu/wRpiZG1s+O+kEvxKqGzvAgdzjKUxtrY/rcq7sOMN5v7fjhYHRd0ZhnVdkdjc0XxZ99/+pPxqGZ3vG6t0fjlqIxvjJnXLIwHll6S9R3vLbF74PX871w+sfQ3G18OXcfsn2x8zrXGz2itucBHQD0st4NOk5RNWdPjDlL74o/HrQ1fjp/Wf70tl3LBSRzRmQ7URurOO7l/R3x3J6JMa64d0RN7vSITfHyG+WSjt2xZnk+gJh/U3xn0fJYs//8mLe4/I7xwPOvjsXLb48J762O/7hoRWzeXyZuOG9a3PGfl8adlabbp8UR5+FpbxdaAJ+61tbDv6y3Nu/PGoc1cUZvtKpyZ7NYvywWPPFuTJh3W8w89wT9k3deiMeXLIvGL0yLpXNLzkbV0hT337sxam86zv9X6NXx4upYtbU9hl59VVxc5tDPmsnjjzxjWb9hMfy8bD74mrhiTPH/r8nqS8cpybtgYlxSnDOdXhfn5G4jLjxqXK2hXx6V/d0RB97tXM5t566or42Dv9lxRIBy8LWm2N5vckz66nHFHHFg28aOQ3a+WV9mANba8TFlcva/GrbFno6KltieNfRz4658s/S5P31YXD41d9+LtO+OLQ0tMaR+WpkzrdXE6CumxvB4JZ57vZv9hX4jYvr1UyMaVsemt/dHw5MbouZbN8e1XXTmOF5Tppa87/qNinETsnnbB0WH6AzI9kFGlYz7UXgf7I8DPeixCgB9Qe8GHf+zveIvXC3N2Q5GVz6s1A34UBx4O1/ssb3RUNpzIZsayh0xcnr/GD5xdtx536wYuPlPu++Smhlef1tM2vlYrOpmvI6DL/069k8aW/LrTU2c+5WJsen/KXe2klEx/fZ8APHAE/HzuxfGvPpRXfeuOH1AjL52Yfx84UVx4Im7u71P3RowOIa+1VJ0rG43Dr0bBy6oi57+9gRQbODAL0X8//ny4FxDOtuudPt1ljXgPuhBcNCWbRvu+34s2VAT05cs/mTQ0098rubohvMnsv/1P7NZXe1RPRgPbl0RixY/GfvOuyXuXXR1DC8OGXK9PO5bES2Tc7+aH/83ZWevjqzQb3LMLOnpV3B0b4B8D8meDGJ9dt1Rj7Ozh2Z1A3kPvyBrdL+7Prb893xFNMf23+yNIfUTY3QPXrJy2t7bnz3+bLtT9n7URN2wUR2N9paOLCLbl3gjq/3S4LK9SD5/esmdyfeoqBtcoZ/qWXUdPw7seqf7fYWa86fFDZP3x6qly2JNdHPISonm1p4ekDU2hv5+vviJ3OHD2ez1kl5PH7XFgZ1N0bB2dTx0d7Z/tHBuzH2im301AOijejHoyDak71dqGLdF63ujYmj5QTiyHZUzov9vW+Of84tHao3WA9mOTOHY6R4ZEfWlPReyqb7o2O6j9B8WU26+NYY+szZe7q5LQ268jhuuigNPro1dFQcEbYntzzVHzbZsB7gkcFmyZm+c8frLsf1Ejj8yaGzMvH1yHHhkQ8/P6nKEujh3/Cuxp8qQqf2f9kTLucMqHroEUI2Bw0bGm2/mDzcYPjKu6LcxGp/rpjH53t7Ynl1veH6xS+80xf3fXxabB82Ie5cvzLYHZZq9g2o7GrEH/keZX+s/OhQtb2V3bXDRRilrMO5auyQWrGiOcbfdF3fOvuzIX9QzrS+tj4bm7DYblnUMDNo5sGVuWhYNuRWy+txybgDRqpw5IsbkelacN+zIQKWvOeey+MMR7dH4Yv4U82+9En/71oj4w/EnqEvDFz7fRSiV0/+IAWG/WHZ02Mr6d7N+tbd3xpm10f5h9gxkOzNV9WMZNCzOHZzr/bK3d8a+ankh7r91bix4eEO8+X5NDLnoqpg569a47dqSni0AcIroxaAjd2aVCg3jj5rjzf3nx/BKP2Llzqzyv96IckdcxHv7482RI+Ocan99OhFqamPo0Lb4oJqzmQy6LG67PuKphyuM1/HWC/G3MS0WlAlcctMd9f8Y//Wl7n8R6pFBdTH03Q8q9JCpVv8YN2Fs/HLTjipu51Bs2bD7iDFIAI7JsMtiwu5fdQ7e2P/CuPb6C+PNFYtiyV81xa7mQ9H2XnPsalodmz/pmdceexo3ZA21Kgb2fP+VeGjximieuDjuvGliDK0UEOQbmdv/IXfoTIm3OwcZHT388GEb+xqWxZ9vGBDfvnNxTD+/fCp/xqhrOgdyPGqa0XEWl7h0RsfyN0cd3+EcfU9tfG3KhdHetC1yHQ33vZ5tK0eMj3HHOQhpTv/sdYp390Vz2R8L2qN5/+6IwUOjtuMprYkzcsHB2++WPSzzgw9LAqYzB3aM2bL3txW2z+9k78NsNuKs7nvn5MbleHxdxPTbbonL/35FPFXVGYKGxcVXjcjuwOr42yMGET0x9mx8Ml5unxx3LL8zbrthWkyf3DkGyTCnJwbgFNWrPTpGXzQ2tmw9etT29p1bY1fWaK78a1tdjPv6u7Fp29G/ZB3YtjXb1x1V3S8gJ0yua3L/zq6eVch1S51TtzGe2nL0eB25nbphU8YfHuSuxPDxUyN+syMO5JdPiPa2aB98Rvc7/d2oGTM1/vi91fHY1q53yg5uejIaz54dPeiNC1BBbUz6Vm0880RneDzka7fG/73sxji3ZUPcv3B+fCd3qszXIgbmG2S5RuRfvJc11I4Yc6K8fRtXx/NfmhHf+1aZMR2OkDUyr6yL2Pjr2HLE1197bN+0Pg7WXRMTvpyvev+FeObp5rjiT24tM5bDYTW1IzoHcjxqGtG5fRjcefnI2uP95u57+o+5OC7+MDcm1Y6OcS8u7mKb2BNDL5gYI+OVeCY/0OcRWrZG48aIkd+4LL/vMSxGX5o9t1t/Fc+VbqrbdsTfPV0yYGpuHK0pNXGwYW1sPmoT2B67Nm+IfdWMM/Lh3ljz5IaIa7Nt5Fcvi+nXjY3tK1aWuc2jDZ04I+rr2qPxoWWx6tUqe/pU5VC0NGfP2JfqorZ4P+ej5tjetDu/UGp3HDRuBwB9WK+O0VEzamrUN688coOc6yb8dM2RZwtpeyUen7skGop6fwyZMCOGNmYN5qJuHW1vrI6f7Rwf0y86vCPRtm1FfGfxhhMTDBzaEQ0b9x55ppX2lti1dmVsufSquLjqdKUmRn7r5hi3ZWU05ms6tO+OzY1jY0rR/T/KWRfFpN/bEC8fdfq9KuxtinWvNh95ppX398fmp9bH72ZOrq4bd1c6TqV7c5z96yWxZO2OOFDyq1l7y95oXLEsfvbbK+OObhsOANWpGTEtvjdhb/zskY2xL9sk9B92Wcycf2f8fOVT8VcrH45758+IcYMiWl9dGUt+WRvfnX1hFWF4S+zbnbUu/01W2r07du0sM719ePszdHLWMK3bEY8vuTtWNe3ILn8hGh5eFvdvrI36G6ceHnPpn/bFy1EXn2/be/TtdUwl25jPojMvjClTIjb91ersuZrc9TaxJ86aHN+9aWwcbFgWf3L36tj8audz/nzDo7Fo0YrY9ZXZ8d2i9GnklBtjXL+98dSSJfH4xtxrujtr2K+OZT/8ddRMKj1koyZGf2th1A/K3gOLlsRDDS90vp6vNsWqu+fHn/+qJuoXzOhmnJH22PU3j0XD76bGDfkBU4dMnBE3jMhu879Ucda2fiNi5qLbo/6s5mi4f358Z+mjsaqhKbZ33O8NsSY3tsaPH+3Rqe47DYgRF4yIeCvbx1qxseP2dr26MXuvPxZv1pY5dOVLw+Pi7LE0rH+2Y93NG185xlM5A0Dv6dWgo6NhPH9enLvjwViwcEksWpw1kNe1xzcXzShztpD+R46k37FBvyba1y375LoP7Tg/vje/ZPTwnDP6n5hG9RdypyTcGquWzo/r5y6KBXNvirlLV8ee826JpT3tnnB6XUz5zqwYXfQMt//9tnhu4vhudoQGxCUT/uDo0+9V4+wRMeSt9bF80dy4fv6imHtT7njbpogpt8ecE7Uj2W9YXLvovphzTnM88/CSzv+xuPP5uvtvXo8vTLo9ll43tvqB7QCqMOTS2bHw6ppovHdR3LM6a9zlTl/9flu0vbM/dm3dEA8tXRQP/eNFccf8yZUPQTlC52CUsW113HP33fHn5abin/pz26QlS2POJe2xZeXy7PK/jM3to+Lmu5YeccaU1ndz12mOxsfK3F7HtD7eOJHjMJ2SamL0166JLzZnz9UJGIS0WO4U6w8smRVfix3xi/s7n/MVTe0xevbSeKR0/2HQZXHHfQtj5kU18dJTudf0wVj1WsS/W3Br1J9d5k7l3gNL74076gdHc+OTna/nI2vjzYHXxI8euLPbM+e0v569137VGlNumBajC+/RbF9h0syrY+jrVR7CMmBsdh8eiDvnXh3j+v1jbFq9ouP9e88Tq6Pxpd3R/HtDj+yVUaUhV9waP5o2Ntq3rey4vfuf3RPDb1hYvmfUmZfFzHmTY/jetdm6y2PNP9XkTrIMAH3KaR1/f7Dz44/vOuJkogDQ93zUHq3v7I3tr70RBzvGTTojhpwzKs7/t8NiyAlsMNPL3no2vvenTXHFsnt79dSqAMBny2k/3BXxkzGn9W6PDgA4kU6viYF1o+KK+mkxfVpumhpXfFXIcWppj13PrY+DI6bG5UIOAKAXCDoAgE/P+69EY2PE5VNPzCCkAAClBB0AQK/bs3VDbM8Ncnn3k7H9K7OOGFgcAOBEEnQAAL2veW3cc//q2D5oWiydW2ZgcQCAE8RgpAAAAMApz2CkAAAAQHIEHQAAAEAyBB0AAABAMgQdAAAAQDIEHQAAAEAyBB0AAABAMgQdAAAAQDIEHQAAAEAyBB0AAABAMgQdAAAAQDIEHQAAAEAyBB0AAABAMgQdAAAAQDIEHQAAAEAyBB0AAABAMk7r+PuDnR93zAEAAABOVT8Z05lzAAAAAJz6Iv43DesIm4BGyjgAAAAASUVORK5CYII=;" vertex="1" parent="1">
          <mxGeometry x="440" y="600" width="1082" height="1154" as="geometry" />
        </mxCell>
        <mxCell id="NtgWOxJLACzpBkcqZCcz-3" value="&lt;font style=&quot;vertical-align: inherit;&quot;&gt;&lt;font style=&quot;vertical-align: inherit;&quot;&gt;1&lt;/font&gt;&lt;/font&gt;" style="whiteSpace=wrap;html=1;aspect=fixed;fillColor=#e1d5e7;strokeColor=#9673a6;" vertex="1" parent="1">
          <mxGeometry x="554" y="1220" width="20" height="20" as="geometry" />
        </mxCell>
        <mxCell id="NtgWOxJLACzpBkcqZCcz-4" value="&lt;font style=&quot;vertical-align: inherit;&quot;&gt;&lt;font style=&quot;vertical-align: inherit;&quot;&gt;2&lt;/font&gt;&lt;/font&gt;" style="whiteSpace=wrap;html=1;aspect=fixed;fillColor=#e1d5e7;strokeColor=#9673a6;" vertex="1" parent="1">
          <mxGeometry x="757" y="1320" width="20" height="20" as="geometry" />
        </mxCell>
      </root>
    </mxGraphModel>
  </diagram>
</mxfile>
